<?xml version="1.0" encoding="utf-8"?>
<svg id="master-artboard" viewBox="0 0 1400 980" version="1.1" xmlns="http://www.w3.org/2000/svg" x="0px" y="0px" width="1400px" height="980px" enable-background="new 0 0 1400 980">
<path opacity="0.2" fill-rule="evenodd" clip-rule="evenodd" d="M364.733,723.703c3.209,1.141,6.246,2.629,9.069,4.414l9.063-8.036&#10;&#9;&#9;c0.742-0.658,1.614-1.081,2.524-1.275c-0.521-0.335-1.034-0.682-1.539-1.039l-6.095,6.095c-0.861,0.861-2.271,0.861-3.133,0&#10;&#9;&#9;l-6.658-6.657c-0.861-0.861-0.861-2.271,0-3.133l6.095-6.095c-3.469-4.896-5.891-10.586-6.939-16.744h-8.615&#10;&#9;&#9;c-1.218,0-2.215-0.997-2.215-2.215v-9.415c0-1.219,0.997-2.216,2.215-2.216h8.615c1.048-6.158,3.47-11.849,6.939-16.744&#10;&#9;&#9;l-6.095-6.095c-0.861-0.861-0.861-2.271,0-3.132l6.658-6.658c0.862-0.861,2.271-0.861,3.133,0l6.095,6.095&#10;&#9;&#9;c4.896-3.469,10.585-5.892,16.744-6.939v-6.797l-10.368,9.191c-2.301,2.041-5.852,1.827-7.891-0.474l-8.037-9.063&#10;&#9;&#9;c-3.017,1.435-6.21,2.548-9.532,3.298l-0.727,12.088c-0.184,3.068-2.846,5.429-5.915,5.244l-14.3-0.858&#10;&#9;&#9;c-3.069-0.186-5.429-2.846-5.245-5.916l0.727-12.087c-3.208-1.142-6.246-2.629-9.068-4.415l-9.064,8.035&#10;&#9;&#9;c-2.3,2.04-5.852,1.827-7.891-0.474l-9.503-10.719c-2.04-2.301-1.827-5.852,0.473-7.892l9.064-8.036&#10;&#9;&#9;c-1.434-3.017-2.548-6.21-3.298-9.532l-12.087-0.727c-1.338-0.079-2.541-0.631-3.458-1.481c0.184,0.789,0.344,1.588,0.481,2.394&#10;&#9;&#9;h8.616c1.218,0,2.215,0.997,2.215,2.216v9.415c0,1.219-0.997,2.215-2.215,2.215h-8.616c-1.048,6.158-3.47,11.849-6.939,16.744&#10;&#9;&#9;l6.095,6.095c0.862,0.861,0.862,2.271,0,3.133l-6.658,6.657c-0.861,0.861-2.271,0.861-3.132,0l-6.095-6.095&#10;&#9;&#9;c-4.896,3.47-10.585,5.892-16.744,6.939v8.615c0,1.219-0.997,2.216-2.215,2.216h-9.415c-1.218,0-2.215-0.997-2.215-2.216v-8.615&#10;&#9;&#9;c-6.158-1.048-11.849-3.47-16.744-6.939l-6.094,6.095c-0.862,0.861-2.271,0.861-3.133,0l-6.657-6.657&#10;&#9;&#9;c-0.862-0.861-0.862-2.271,0-3.133l6.094-6.095c-3.469-4.896-5.892-10.586-6.939-16.744h-8.615c-1.218,0-2.215-0.996-2.215-2.215&#10;&#9;&#9;v-9.415c0-1.219,0.997-2.216,2.215-2.216h8.615c1.048-6.158,3.47-11.848,6.939-16.744l-6.094-6.094&#10;&#9;&#9;c-0.862-0.862-0.862-2.271,0-3.133l6.657-6.658c0.861-0.861,2.271-0.861,3.133,0l6.094,6.095&#10;&#9;&#9;c4.896-3.469,10.586-5.891,16.744-6.938v-8.616c0-1.218,0.997-2.215,2.215-2.215h9.415c1.219,0,2.215,0.997,2.215,2.215v8.616&#10;&#9;&#9;c6.159,1.048,11.849,3.47,16.744,6.938l6.095-6.095c0.861-0.861,2.271-0.861,3.132,0l6.658,6.658&#10;&#9;&#9;c0.466,0.467,0.68,1.094,0.642,1.707c1.099-1.377,2.827-2.222,4.709-2.107l12.087,0.726c1.142-3.207,2.629-6.244,4.416-9.068&#10;&#9;&#9;l-8.037-9.063c-2.04-2.301-1.826-5.852,0.475-7.891l10.719-9.504c2.3-2.04,5.851-1.827,7.891,0.474l8.036,9.064&#10;&#9;&#9;c3.017-1.436,6.209-2.548,9.533-3.299l0.378-6.292c-0.29,0.909-1.144,1.572-2.145,1.572h-9.563c-1.238,0-2.25-1.012-2.25-2.25&#10;&#9;&#9;v-8.751c-6.255-1.063-12.035-3.523-17.007-7.048l-6.19,6.19c-0.875,0.875-2.307,0.875-3.182,0l-6.762-6.762&#10;&#9;&#9;c-0.875-0.875-0.875-2.308,0-3.183l6.19-6.189c-3.523-4.973-5.983-10.752-7.048-17.008h-8.751c-1.237,0-2.25-1.012-2.25-2.249&#10;&#9;&#9;v-9.563c0-1.237,1.012-2.25,2.25-2.25h8.751c1.064-6.255,3.524-12.034,7.048-17.007l-6.19-6.19c-0.875-0.875-0.875-2.307,0-3.182&#10;&#9;&#9;l6.762-6.762c0.875-0.875,2.307-0.875,3.182,0l6.19,6.19c4.972-3.523,10.751-5.984,17.007-7.048v-8.751&#10;&#9;&#9;c0-1.238,1.012-2.25,2.25-2.25h9.563c1.237,0,2.25,1.012,2.25,2.25v8.751c3.877,0.66,7.573,1.855,11.005,3.509l-8.876-10.011&#10;&#9;&#9;c-1.999-2.254-1.79-5.734,0.464-7.732l8.882-7.875c-1.406-2.957-2.497-6.086-3.232-9.341l-11.845-0.711&#10;&#9;&#9;c-1.917-0.115-3.553-1.218-4.44-2.782c-0.148,0.177-0.311,0.345-0.488,0.502l-9.063,8.036c-1.946,1.725-4.948,1.544-6.672-0.401&#10;&#9;&#9;l-6.795-7.664c-2.55,1.213-5.25,2.154-8.059,2.789l-0.614,10.221c-0.156,2.594-2.407,4.591-5.002,4.434l-12.091-0.726&#10;&#9;&#9;c-2.595-0.156-4.591-2.407-4.435-5.001l0.614-10.221c-2.713-0.965-5.281-2.223-7.668-3.733l-7.664,6.794&#10;&#9;&#9;c-1.945,1.725-4.948,1.545-6.672-0.4l-8.036-9.063c-1.725-1.945-1.545-4.948,0.4-6.672l7.664-6.795&#10;&#9;&#9;c-1.213-2.551-2.154-5.251-2.789-8.06l-10.22-0.614c-2.595-0.156-4.591-2.407-4.435-5.002l0.727-12.091&#10;&#9;&#9;c0.156-2.595,2.406-4.591,5.002-4.436l10.221,0.615c0.965-2.712,2.223-5.28,3.733-7.667l-6.796-7.664&#10;&#9;&#9;c-1.725-1.945-1.544-4.948,0.401-6.672l9.063-8.036c1.945-1.725,4.947-1.545,6.672,0.4l6.795,7.665&#10;&#9;&#9;c2.551-1.214,5.25-2.154,8.06-2.789l0.614-10.221c0.156-2.595,2.406-4.59,5.002-4.435l12.09,0.727&#10;&#9;&#9;c2.595,0.156,4.591,2.407,4.436,5.001l-0.614,10.221c2.712,0.965,5.281,2.223,7.667,3.733l7.665-6.794&#10;&#9;&#9;c1.945-1.725,4.948-1.544,6.672,0.4l8.036,9.063c1.725,1.945,1.544,4.948-0.4,6.672l-7.665,6.795&#10;&#9;&#9;c1.213,2.551,2.154,5.251,2.789,8.06l10.221,0.614c2.594,0.156,4.59,2.406,4.434,5.002l-0.726,12.091&#10;&#9;&#9;c-0.083,1.39-0.768,2.607-1.785,3.415l7.497,0.451c1.119-3.144,2.576-6.12,4.326-8.886l-7.875-8.882&#10;&#9;&#9;c-1.999-2.254-1.79-5.734,0.464-7.733l10.504-9.313c2.256-1.999,5.735-1.79,7.733,0.464l7.875,8.882&#10;&#9;&#9;c2.956-1.406,6.085-2.497,9.341-3.231l0.711-11.845c0.181-3.008,2.789-5.321,5.797-5.14l14.013,0.842&#10;&#9;&#9;c3.008,0.181,5.321,2.789,5.141,5.797l-0.712,11.845c3.145,1.118,6.121,2.576,8.887,4.326l8.881-7.875&#10;&#9;&#9;c2.254-2,5.734-1.79,7.733,0.464l9.314,10.504c1.998,2.255,1.789,5.734-0.465,7.733l-8.882,7.875&#10;&#9;&#9;c1.407,2.957,2.498,6.085,3.232,9.34l11.846,0.712c3.007,0.181,5.32,2.789,5.139,5.797l-0.842,14.013&#10;&#9;&#9;c-0.18,3.008-2.789,5.321-5.796,5.14l-11.846-0.711c-1.119,3.144-2.576,6.12-4.326,8.887l7.874,8.882&#10;&#9;&#9;c2,2.255,1.79,5.734-0.465,7.733l-10.504,9.313c-2.254,1.999-5.734,1.79-7.733-0.465l-7.875-8.881&#10;&#9;&#9;c-2.957,1.406-6.086,2.497-9.341,3.232l-0.712,11.845c-0.181,3.007-2.789,5.32-5.797,5.14l-14.013-0.842&#10;&#9;&#9;c-3.008-0.181-5.321-2.79-5.14-5.797l0.712-11.844c-3.146-1.119-6.122-2.577-8.888-4.327l-4.435,3.932&#10;&#9;&#9;c0.865-0.522,2.012-0.412,2.757,0.333l6.762,6.762c0.875,0.875,0.875,2.307,0,3.182l-6.19,6.19&#10;&#9;&#9;c3.524,4.972,5.984,10.752,7.048,17.007h8.75c1.238,0,2.25,1.013,2.25,2.25v9.563c0,1.237-1.012,2.249-2.25,2.249h-8.75&#10;&#9;&#9;c-1.064,6.256-3.524,12.035-7.048,17.008l6.19,6.189c0.875,0.875,0.875,2.308,0,3.183l-6.762,6.762&#10;&#9;&#9;c-0.875,0.875-2.307,0.875-3.182,0l-6.19-6.19c-3.245,2.3-6.833,4.146-10.673,5.447l14.123,0.849&#10;&#9;&#9;c3.069,0.185,5.43,2.847,5.246,5.915l-0.726,12.088c3.208,1.142,6.246,2.629,9.068,4.415l9.064-8.036&#10;&#9;&#9;c2.3-2.04,5.851-1.826,7.891,0.474l9.504,10.72c2.04,2.3,1.827,5.851-0.474,7.891l-9.064,8.036c1.435,3.018,2.548,6.21,3.298,9.532&#10;&#9;&#9;l12.087,0.727c3.069,0.184,5.428,2.847,5.245,5.915l-0.859,14.3c-0.185,3.069-2.847,5.43-5.916,5.245l-12.088-0.726&#10;&#9;&#9;c-1.142,3.207-2.629,6.244-4.415,9.068l8.036,9.062c1.049,1.185,1.503,2.7,1.381,4.17h0.008h9.415c1.219,0,2.215,0.996,2.215,2.215&#10;&#9;&#9;v8.615c6.159,1.048,11.849,3.471,16.744,6.939l6.095-6.095c0.861-0.861,2.271-0.861,3.132,0l6.658,6.658&#10;&#9;&#9;c0.861,0.861,0.861,2.271,0,3.132l-6.095,6.095c3.47,4.896,5.892,10.586,6.939,16.744h8.616c1.218,0,2.215,0.997,2.215,2.216v9.415&#10;&#9;&#9;c0,1.218-0.997,2.215-2.215,2.215h-8.616c-1.048,6.159-3.47,11.849-6.939,16.744l6.095,6.095c0.861,0.861,0.861,2.271,0,3.133&#10;&#9;&#9;l-6.658,6.657c-0.861,0.861-2.271,0.861-3.132,0l-6.095-6.095c-4.896,3.47-10.585,5.892-16.744,6.939v8.615&#10;&#9;&#9;c0,0.814-0.445,1.529-1.103,1.914h6.457h15.375h23.25h16.18h7.071l-1.057-5.893l-1.041-5.801l-1.024-5.708l-1.007-5.614&#10;&#9;&#9;l-0.991-5.521l-0.974-5.43l-1.779-9.918l-0.119-0.662l-0.924-5.15l-0.907-5.058l-0.891-4.965l-0.875-4.872l-0.857-4.779&#10;&#9;&#9;l-0.841-4.688l-0.824-4.594l-0.808-4.5l-0.791-4.409l-0.774-4.315l-0.757-4.223l-0.741-4.129l-0.724-4.037l-0.708-3.944&#10;&#9;&#9;l-0.691-3.852l-0.674-3.759l-0.658-3.666l-0.933-5.202l-0.332-1.851l-0.607-3.387l-0.591-3.295l-0.574-3.202l-0.558-3.108&#10;&#9;&#9;l-0.542-3.017l-0.524-2.923l-0.507-2.831l-0.492-2.737l-0.474-2.646l-0.458-2.552l-0.441-2.459l-0.424-2.367l-0.408-2.273&#10;&#9;&#9;l-0.391-2.181l-0.375-2.088l-0.358-1.996l-0.341-1.901l-0.324-1.811l-0.308-1.717l-0.292-1.624l-0.274-1.531l-0.258-1.438&#10;&#9;&#9;l-0.241-1.346l-0.225-1.253l-0.208-1.16l-0.192-1.067l-0.174-0.974l-0.158-0.882l-0.142-0.789l-0.125-0.696l-0.108-0.603&#10;&#9;&#9;l-0.091-0.511l-0.075-0.418l-0.058-0.324l-0.042-0.232l-0.025-0.139l-0.008-0.047c43.668,5.661,80.131,39.576,87.048,85.283&#10;&#9;&#9;c6.627,43.787-15.852,85.258-52.953,104.78v180.073H316.485v-15.195c-4.472-1.584-8.006-4.139-11.66-7.656&#10;&#9;&#9;c-7.465-7.188-15.431-18.389-20.18-40.623c-4.563-21.359-6.156-52.893-6.834-71.616c-0.646-4.537-0.994-9.167-1.017-13.87&#10;&#9;&#9;c-0.436-0.949-0.501-2.068-0.091-3.119c0.043-0.109,0.088-0.219,0.133-0.327c0.279-9.633,1.897-18.911,4.667-27.666h22.809&#10;&#9;&#9;l-1.691-1.907c-2.04-2.301-1.826-5.852,0.474-7.892l10.719-9.504c2.301-2.039,5.852-1.826,7.892,0.475l8.036,9.063&#10;&#9;&#9;c3.017-1.435,6.209-2.548,9.532-3.298L340,710.086c0.185-3.069,2.846-5.43,5.915-5.245l14.3,0.859&#10;&#9;&#9;c3.069,0.185,5.429,2.846,5.245,5.915L364.733,723.703L364.733,723.703z M392.4,722.409l7.861,8.865&#10;&#9;&#9;c0.119,0.135,0.23,0.273,0.334,0.416v-6.984C397.753,724.223,395.011,723.445,392.4,722.409L392.4,722.409z M401.657,735.21&#10;&#9;&#9;l-0.001,0.025h0.043L401.657,735.21L401.657,735.21z M293.823,583.145l-5.804,5.804c1.918,2.706,3.516,5.655,4.738,8.792&#10;&#9;&#9;l0.792-13.174C293.578,584.071,293.672,583.595,293.823,583.145L293.823,583.145z M345.066,542.722l0.243-4.049&#10;&#9;&#9;c0.102-1.698,0.962-3.18,2.231-4.132c-0.816,0.19-1.641,0.357-2.474,0.499V542.722L345.066,542.722z M360.252,458.807&#10;&#9;&#9;c0.618,0.391,1.225,0.797,1.821,1.22l5.802-5.803l-3.634,3.222C363.107,458.452,361.663,458.898,360.252,458.807L360.252,458.807z&#10;&#9;&#9; M336.542,411.418l0.626-10.411c0.104-1.717,0.998-3.208,2.306-4.137l-5.598-0.336c-0.965,2.712-2.223,5.281-3.733,7.668&#10;&#9;&#9;L336.542,411.418z" transform="matrix(1, 0, 0, 1, 0, 0)"/><path opacity="0.2" fill-rule="evenodd" clip-rule="evenodd" d="M745.072,910.959h10.943v-29.744&#10;&#9;&#9;c-15.343,5.77-30.248,8.41-41.025,9.061c-15.484,0.933-22.449-2.241-29.915-9.429c-7.465-7.188-15.432-18.389-20.18-40.623&#10;&#9;&#9;c-1.602-7.495-2.836-16.244-3.795-25.252c-9.777-5.564-16.371-16.077-16.371-28.132c0-10.409,4.917-19.668,12.555-25.585&#10;&#9;&#9;c-0.222-3.227-0.293-6.494-0.203-9.794c0.265-9.693,1.886-19.029,4.672-27.835h31.683v-11.578v-38.062h0.016&#10;&#9;&#9;c0.008-2.419,0.51-4.761,1.449-6.891c0.943-2.142,2.328-4.095,4.092-5.721c1.749-1.61,3.81-2.826,6.042-3.597&#10;&#9;&#9;c2.228-0.77,4.591-1.087,6.947-0.903l88.205-0.373c1.574,0.002,3.087-0.414,4.399-1.17c1.303-0.75,2.417-1.848,3.207-3.215&#10;&#9;&#9;c0.776-1.343,1.165-2.856,1.165-4.381s-0.389-3.038-1.165-4.382c-0.79-1.366-1.904-2.465-3.207-3.214&#10;&#9;&#9;c-1.312-0.757-2.825-1.173-4.399-1.17l-155.834-0.749c-0.117,0.005-0.235,0.005-0.354-0.001c-4.319-0.204-8.178-2.087-10.957-5&#10;&#9;&#9;c-2.782-2.916-4.482-6.856-4.482-11.172s1.701-8.256,4.482-11.172c2.703-2.834,6.429-4.693,10.605-4.979&#10;&#9;&#9;c0.176-0.023,0.356-0.036,0.539-0.036h60.75v0.013c0.309,0,0.623,0.036,0.938,0.112c1.699,0.414,3.459,0.424,5.148,0.059&#10;&#9;&#9;c1.691-0.366,3.29-1.103,4.665-2.181c1.365-1.071,2.457-2.445,3.216-4.001c0.746-1.532,1.156-3.209,1.173-4.914v-0.197&#10;&#9;&#9;l4.125-134.313c0.071-1.547-0.286-3.052-0.993-4.368c-0.709-1.319-1.764-2.447-3.087-3.238c-1.312-0.785-2.805-1.178-4.311-1.178&#10;&#9;&#9;c-1.505,0-2.997,0.393-4.31,1.178c-1.323,0.791-2.379,1.919-3.088,3.238c-0.706,1.316-1.063,2.821-0.993,4.368&#10;&#9;&#9;c0.005,0.114,0.006,0.228,0,0.344l-4.125,91.688c-0.021,2.688-0.749,5.28-2.051,7.548c-1.333,2.322-3.261,4.293-5.641,5.671&#10;&#9;&#9;c-2.402,1.391-5.072,2.086-7.73,2.086c-2.659,0-5.329-0.695-7.73-2.086c-2.38-1.378-4.308-3.349-5.641-5.671&#10;&#9;&#9;c-1.319-2.296-2.048-4.926-2.051-7.65v-0.147l0.75-34.48c-0.015-1.628-0.669-3.113-1.728-4.213&#10;&#9;&#9;c-1.067-1.107-2.545-1.817-4.191-1.878c-1.661-0.062-3.194,0.536-4.34,1.561c-1.124,1.006-1.879,2.432-2.017,4.053&#10;&#9;&#9;c0.02,2.732-0.668,5.362-1.938,7.658c-1.332,2.407-3.292,4.462-5.738,5.904c-2.458,1.449-5.203,2.175-7.939,2.175&#10;&#9;&#9;c-2.736,0-5.481-0.726-7.938-2.175c-2.446-1.442-4.407-3.497-5.738-5.904c-1.282-2.319-1.972-4.978-1.938-7.74&#10;&#9;&#9;c-0.004-0.121-0.002-0.243,0.005-0.366l3.77-63.227l-17.362-0.863c-3.296-0.164-5.858-2.995-5.695-6.291l0,0&#10;&#9;&#9;c0.164-3.296,2.995-5.858,6.291-5.695c-3.296-0.164-5.858-2.995-5.695-6.291l0,0c0.164-3.296,2.995-5.859,6.291-5.695&#10;&#9;&#9;c-3.296-0.164-5.859-2.995-5.695-6.291l0,0c0.164-3.296,2.994-5.859,6.291-5.695l0.526-10.58c0.225-4.779-1.583-9.379-4.892-12.71&#10;&#9;&#9;c-0.77-0.609-1.519-1.243-2.247-1.899l-0.02-0.014l0.002-0.001c-9.366-8.459-15.146-20.74-14.975-34.231v-0.027l0.001-0.054&#10;&#9;&#9;l0-0.027l0.008-0.433l0.001-0.027l0-0.027l0-0.027l0.01-0.353l0.001-0.027l0.001-0.027l0-0.017l0-0.01l0-0.027l0.001-0.027&#10;&#9;&#9;c0.007-0.199,0.016-0.399,0.025-0.599c1.245-25.028,22.543-44.31,47.572-43.065c25.029,1.244,44.311,22.543,43.066,47.572&#10;&#9;&#9;c-0.011,0.21-0.022,0.42-0.036,0.63l-0.001,0.033l-0.001,0.018c-0.014,0.213-0.029,0.426-0.045,0.638l-0.001,0.01&#10;&#9;&#9;c-0.017,0.208-0.034,0.416-0.053,0.624l-0.006,0.065c-0.018,0.193-0.037,0.386-0.058,0.579l-0.007,0.067&#10;&#9;&#9;c-0.021,0.198-0.044,0.395-0.068,0.592l-0.003,0.028l-0.006,0.048c-0.024,0.193-0.049,0.387-0.075,0.58l-0.003,0.021l-0.002,0.017&#10;&#9;&#9;c-0.028,0.205-0.058,0.41-0.088,0.613l-0.002,0.015l-0.004,0.025c-0.029,0.191-0.06,0.382-0.09,0.572l-0.021,0.121&#10;&#9;&#9;c-0.029,0.173-0.059,0.345-0.09,0.517l-0.018,0.1c-0.031,0.169-0.062,0.338-0.095,0.507l-0.027,0.14l-0.093,0.46l-0.043,0.205&#10;&#9;&#9;l-0.086,0.395l-0.056,0.251l-0.088,0.377l-0.064,0.269l-0.015,0.061l-0.049,0.197l-0.017,0.068l-0.07,0.276l-0.099,0.375&#10;&#9;&#9;l-0.067,0.248l-0.092,0.332l-0.073,0.258l-0.101,0.345l-0.072,0.243l-0.059,0.192l-0.06,0.193l-0.097,0.305l-0.088,0.272&#10;&#9;&#9;l-0.102,0.31l-0.104,0.305l-0.108,0.311l-0.008,0.022v0c-3.058,8.689-8.672,16.123-15.901,21.452l0.002,0.002l-0.021,0.012&#10;&#9;&#9;c-0.79,0.581-1.598,1.137-2.424,1.667c-3.623,2.987-5.878,7.385-6.128,12.163l-0.526,10.58l0,0l1.123,0.056&#10;&#9;&#9;c3.296,0.164,5.858,2.995,5.695,6.291l0,0c-0.164,3.296-2.995,5.859-6.291,5.695c3.296,0.164,5.859,2.995,5.695,6.291l0,0&#10;&#9;&#9;c-0.164,3.296-2.995,5.859-6.291,5.695c3.296,0.164,5.858,2.995,5.695,6.291l0,0c-0.164,3.296-2.995,5.859-6.291,5.695&#10;&#9;&#9;l-17.362-0.863L641.442,454l-0.001,0.019l-0.645,10.807l-3.13,52.494c-0.007,1.325,0.336,2.615,0.967,3.756&#10;&#9;&#9;c0.645,1.167,1.603,2.167,2.801,2.874c1.187,0.699,2.527,1.05,3.876,1.05c1.349,0,2.69-0.351,3.876-1.05&#10;&#9;&#9;c1.199-0.707,2.156-1.707,2.801-2.874c0.657-1.188,1.002-2.536,0.963-3.918c-0.003-0.131,0-0.262,0.008-0.39l-0.008-0.001&#10;&#9;&#9;c0.281-3.79,2.039-7.133,4.678-9.495c2.634-2.356,6.145-3.732,9.934-3.592c3.803,0.141,7.208,1.771,9.66,4.316&#10;&#9;&#9;c2.447,2.54,3.947,5.999,3.947,9.802l-0.75,34.574c0.009,1.318,0.359,2.582,0.988,3.677c0.638,1.11,1.572,2.061,2.735,2.733&#10;&#9;&#9;c1.142,0.661,2.431,0.992,3.73,0.992s2.587-0.331,3.729-0.992c1.164-0.673,2.098-1.623,2.735-2.733&#10;&#9;&#9;c0.641-1.115,0.993-2.405,0.988-3.751l0.004-0.171l-0.004-0.001l4.118-91.526c-0.103-2.944,0.591-5.804,1.938-8.312&#10;&#9;&#9;c1.374-2.557,3.433-4.751,6.023-6.3c2.602-1.555,5.51-2.334,8.404-2.334s5.803,0.778,8.404,2.334c2.592,1.549,4.65,3.744,6.024,6.3&#10;&#9;&#9;c1.375,2.559,2.069,5.485,1.931,8.494c-2.406,44.444-2.101,89.658-4.126,134.207c-0.023,2.959-0.706,5.815-1.953,8.374&#10;&#9;&#9;c-1.268,2.599-3.133,4.927-5.497,6.781c-2.355,1.848-5.057,3.101-7.883,3.712c-2.651,0.574-5.433,0.588-8.165,0.005l-60.411-0.001&#10;&#9;&#9;c-2.092,0.158-3.956,1.096-5.312,2.516c-1.405,1.473-2.264,3.473-2.264,5.673c0,2.199,0.859,4.199,2.264,5.672&#10;&#9;&#9;c1.407,1.475,3.362,2.428,5.55,2.531l155.829,0.75c2.98-0.002,5.852,0.792,8.353,2.231c2.517,1.449,4.653,3.541,6.146,6.121&#10;&#9;&#9;c1.505,2.604,2.258,5.499,2.258,8.382s-0.753,5.776-2.258,8.382c-1.492,2.58-3.629,4.671-6.146,6.12&#10;&#9;&#9;c-2.502,1.44-5.373,2.234-8.353,2.232l-88.5,0.375c-0.11,0-0.22-0.004-0.327-0.013l-0.001,0.013&#10;&#9;&#9;c-1.304-0.104-2.577,0.06-3.746,0.464c-1.172,0.404-2.273,1.061-3.229,1.941c-0.939,0.864-1.68,1.91-2.187,3.062&#10;&#9;&#9;c-0.514,1.165-0.788,2.415-0.792,3.673h0.016v38.062v11.578h89.458h1.983h1.952h1.92h1.89h1.857h1.827h1.796h1.765h1.732h1.702&#10;&#9;&#9;h1.671h1.64h1.608h1.577h1.546h1.514h1.483h1.452h1.421h1.39h1.358h1.327h1.297h1.265h1.233h1.202h1.171h1.14h1.109h1.077h1.046&#10;&#9;&#9;h1.015h0.984h0.952h0.921h0.891h0.858h0.828h0.796h0.765h0.734h0.702h0.672h0.64h0.609h0.578h0.546h0.516h0.483h0.453h0.422h0.39&#10;&#9;&#9;h0.359h0.328h0.297h0.266h0.233h0.203h0.172h0.141h0.109h0.078h0.047h0.016c19.332-0.609,36.57-12.341,44.231-30.101&#10;&#9;&#9;c19.417-18.771,30.381-44.619,30.381-71.625c0-27.007-10.536-53.309-30.381-71.626c-2.714-2.505-4.541-5.796-3.567-9.359&#10;&#9;&#9;c0.975-3.563,4.142-6.088,7.833-6.243c-4.633-5.12-11.741-7.217-18.41-5.43c-6.67,1.787-11.778,7.157-13.23,13.908&#10;&#9;&#9;c-0.229,1.298-0.445,2.597-0.654,3.896c-14.415-10.532-32.332-15.417-50.298-13.484l0.009,0.046l0.024,0.14l0.042,0.231&#10;&#9;&#9;l0.059,0.325l0.075,0.417l0.091,0.511l0.108,0.604l0.125,0.696l0.142,0.788l0.158,0.882l0.175,0.975l0.191,1.067l0.208,1.16&#10;&#9;&#9;l0.225,1.252l0.241,1.347l0.258,1.438l0.275,1.531l0.291,1.625l0.309,1.717l0.324,1.81l0.341,1.902l0.358,1.995l0.375,2.088&#10;&#9;&#9;l0.391,2.182l0.408,2.273l0.425,2.366l0.44,2.46l0.458,2.552l0.475,2.645l0.491,2.738l0.508,2.83l0.524,2.924l0.541,3.016&#10;&#9;&#9;l0.558,3.109l0.574,3.201l0.591,3.295l0.608,3.388l1.265,7.053l0.657,3.666l0.675,3.759l0.69,3.852l0.708,3.943l0.724,4.037&#10;&#9;&#9;l0.741,4.13l0.758,4.223l0.774,4.315l0.79,4.408l0.808,4.501l0.824,4.594l0.841,4.687l0.857,4.78l0.874,4.872l0.891,4.965&#10;&#9;&#9;l0.907,5.058l0.924,5.15l0.495,2.758l1.403,7.822l0.974,5.429l0.99,5.522l1.008,5.614l1.023,5.707l1.041,5.801l1.057,5.894&#10;&#9;&#9;c8.211,21.592,7.86,45.004-0.146,65.795c-1.208,3.592-2.689,7.058-4.501,10.457l-0.309,11.307&#10;&#9;&#9;c-0.287,10.508-9.119,18.871-19.628,18.584h-0.001c-1.358-0.038-2.681-0.219-3.953-0.526l-0.446,0.402&#10;&#9;&#9;c-2.582,2.702-5.374,5.59-8.352,8.57v19.5v53.244h17.583h1.123h12.723h0.404v0.006c6.024,0.066,11.705,1.636,16.687,4.344H715.256&#10;&#9;&#9;c1.911-1.039,3.925-1.912,6.023-2.595l0.016-0.006c0.242-0.079,0.486-0.155,0.73-0.229l0.03-0.009l0.192-0.058&#10;&#9;&#9;c0.186-0.055,0.372-0.107,0.56-0.16l0.305-0.083c0.161-0.043,0.321-0.085,0.483-0.125c0.145-0.037,0.29-0.073,0.437-0.107&#10;&#9;&#9;c0.13-0.031,0.261-0.062,0.391-0.092c0.182-0.041,0.364-0.081,0.547-0.119l0.303-0.062c0.195-0.039,0.392-0.077,0.589-0.113&#10;&#9;&#9;l0.266-0.048c0.214-0.038,0.428-0.074,0.644-0.107l0.216-0.034c0.238-0.036,0.478-0.069,0.718-0.101l0.146-0.019&#10;&#9;&#9;c0.26-0.033,0.521-0.063,0.781-0.091l0.098-0.01c0.276-0.027,0.554-0.053,0.832-0.074l0.05-0.004&#10;&#9;&#9;c0.285-0.021,0.57-0.04,0.857-0.055l0.034-0.002l0.025-0.001c0.295-0.016,0.59-0.026,0.887-0.034h0.015&#10;&#9;&#9;c0.306-0.008,0.612-0.013,0.919-0.013h1.5H745.072L745.072,910.959z M660.306,806.788c-1.223-13.869-1.86-27.646-2.231-37.784&#10;&#9;&#9;c-4.378,4.662-7.062,10.936-7.062,17.836C651.014,794.847,654.625,802.008,660.306,806.788z" transform="matrix(1, 0, 0, 1, 0, 0)"/><path opacity="0.2" fill-rule="evenodd" clip-rule="evenodd" d="M1210.023,848.551h30.93c24.608,0,47.358,8.348,65.571,22.343&#10;&#9;&#9;c-23.601,27.167-58.36,44.415-96.953,44.415h-189.888c0.097-0.231,0.193-0.462,0.291-0.692l0,0&#10;&#9;&#9;c0.343-0.807,0.695-1.608,1.058-2.405l0,0c0.361-0.797,0.732-1.588,1.113-2.375l0,0c0.38-0.786,0.77-1.567,1.168-2.344&#10;&#9;&#9;c0.399-0.775,0.808-1.546,1.225-2.311v-0.001c0.417-0.765,0.843-1.524,1.277-2.278c0.435-0.753,0.878-1.501,1.33-2.244&#10;&#9;&#9;c0.453-0.742,0.914-1.479,1.383-2.209h0.001c0.469-0.73,0.947-1.455,1.434-2.174l0,0c0.486-0.719,0.981-1.431,1.484-2.137l0,0&#10;&#9;&#9;c0.503-0.706,1.015-1.406,1.534-2.1l0,0c0.52-0.693,1.047-1.381,1.583-2.062l0,0c0.535-0.681,1.079-1.354,1.63-2.022&#10;&#9;&#9;c0.552-0.667,1.11-1.328,1.678-1.981l0,0c0.567-0.654,1.142-1.302,1.724-1.941l0,0c0.583-0.641,1.172-1.273,1.769-1.899l0,0&#10;&#9;&#9;c0.598-0.626,1.202-1.245,1.813-1.856v-0.001c0.612-0.611,1.23-1.216,1.857-1.812l0,0c0.626-0.598,1.259-1.187,1.899-1.769v-0.001&#10;&#9;&#9;c0.484-0.44,0.972-0.875,1.464-1.307c-4.662-7.021-8.98-16.693-11.998-30.824c-4.563-21.358-6.156-52.893-6.834-71.615&#10;&#9;&#9;c-0.797-5.588-1.139-11.315-0.979-17.147c0.265-9.693,1.886-19.03,4.672-27.836h81.496c-0.629-3.15-0.96-8.781-0.759-18.852&#10;&#9;&#9;l0.093-4.491c0.234-11.224,0.562-26.912,0.417-41.765c-1.916-0.04-3.851-0.094-5.791-0.158c-6.901-0.232-13.786-0.602-20.126-0.998&#10;&#9;&#9;l-0.055,1.351c-0.275,6.863-0.534,13.276-0.944,17.991c-0.695,8.003-1.924,12.845-4.531,16.109&#10;&#9;&#9;c-2.884,3.609-6.751,4.829-12.625,5.516c-5.065,0.592-12.007,0.812-19.033,0.645c-6.679-0.159-13.425-0.672-18.701-1.551&#10;&#9;&#9;c-5.983-0.997-10.349-2.506-13.703-5.547c-3.404-3.088-5.416-7.414-6.578-13.954c-1.697-9.546-1.646-24.437-1.577-44.688&#10;&#9;&#9;c0.007-2.049,0.015-4.325,0.015-13.498c0-19.62-0.219-40.527-0.435-61.26c-0.108-10.463-0.218-20.884-0.3-30.835&#10;&#9;&#9;c-0.125-15.279-0.188-29.455,0.344-41.374c0.548-12.269,1.734-22.334,4.125-29.11c0.538-1.524,1.156-2.921,1.84-4.198&#10;&#9;&#9;c2.529-4.729,5.82-7.374,9.275-8.627c0.126-0.056,0.256-0.107,0.391-0.151c3.631-1.204,7.302-0.838,10.414,0.261&#10;&#9;&#9;c0.886,0.312,1.759,0.706,2.596,1.154c3.69,1.974,6.107,4.651,7.672,10.609c1.298,4.94,1.988,12.449,2.438,24.641&#10;&#9;&#9;c0.437,11.859,0.656,28.415,0.75,45.938c0.094,17.447,0.062,35.834,0,51.469l-0.024,5.752c-0.12,27.705-0.199,45.911,1.931,55.216&#10;&#9;&#9;c0.862,3.768,2.078,5.692,4.547,6.703c3.293,1.349,8.977,1.794,17.969,2.453c2.048,0.15,4.257,0.311,6.587,0.475&#10;&#9;&#9;c0.493-10.406,1.227-20.861,2.851-28.334c1.769-8.134,4.655-13.05,8.031-15.968c3.703-3.201,7.778-3.959,11.656-3.797&#10;&#9;&#9;c4.09,0.17,8.022,1.295,11.359,5.894c2.784,3.836,4.993,10.268,6.203,21.177c0.7,6.312,1.09,14.266,1.282,22.801&#10;&#9;&#9;c7.297-0.02,13.944-0.326,19.03-1.091c6.89-1.035,10.371-2.827,11.97-5.89c1.826-3.502,1.948-9.229,1.89-17.392&#10;&#9;&#9;c-0.016-2.216-0.048-4.698-0.08-7.303c-0.104-8.213-0.224-17.641,0.069-26.671c-4.778,0.284-10.05,0.391-15.784,0.506l-6.879,0.146&#10;&#9;&#9;c-17.252,0.384-37.314,0.83-48.623-2.209c-7.161-1.926-11.165-5.137-13.617-11.141c-2.128-5.211-2.779-12.385-3.398-23&#10;&#9;&#9;c-1.012-17.38-1.99-44.858-2.842-68.802l-0.499-13.944c-0.904-24.994-1.54-42.6,0.826-52.067c1.48-5.922,4.176-9.083,7.367-10.718&#10;&#9;&#9;c3.176-1.626,6.447-1.538,9.461-1.141c2.811,0.369,5.484,1.025,7.852,2.312c2.629,1.43,4.761,3.536,6.117,6.688&#10;&#9;&#9;c2.092,4.858,2.032,11.702,1.86,31.603l-0.048,5.757c-0.093,11.799-0.17,27.639,0.508,43.078&#10;&#9;&#9;c0.668,15.188,2.063,29.865,4.898,39.516c2.576,8.771,6.246,13.04,9.969,14.984c3.577,1.868,7.52,1.665,10.469,1.297&#10;&#9;&#9;c2.061-0.258,3.382-0.588,4.023-2.156c1.236-3.021,1.765-9.012,1.914-20.422c0.3-22.912-1.084-66.508-1.884-91.675l-0.085-2.684&#10;&#9;&#9;c-0.393-12.403-0.604-19.441-0.473-23.7c0.171-5.496,1.01-7.426,2.77-9.128l0.016-0.016c0.122-0.118,0.248-0.233,0.379-0.344&#10;&#9;&#9;c1.645-1.41,3.945-2.267,6.237-2.324c2.424-0.062,4.905,0.735,6.761,2.652c0.126,0.131,0.245,0.262,0.357,0.392&#10;&#9;&#9;c1.608,1.876,2.44,4.415,2.902,8.926c0.38,3.71,0.562,9.116,0.832,17.262c0.266,8.031,0.617,18.766,0.957,29.562&#10;&#9;&#9;c0.337,10.705,0.664,21.542,0.887,29.969l0.065,2.521c0.351,13.518,0.487,18.816,2.185,20.479&#10;&#9;&#9;c1.666,1.631,6.782,1.388,15.694,0.964l0.884-0.042c10.095-0.478,24.904-1.091,35.526-1.531l0.755-0.031&#10;&#9;&#9;c5.154-0.213,9.196-0.381,12.306-0.734c2.493-0.283,4.101-0.633,4.866-1.172c0.718-0.505,0.466-3.281-0.313-11.869l-0.171-1.896&#10;&#9;&#9;c-0.697-7.762-0.831-9.291-0.96-10.782c-0.67-7.73-1.419-16.382-2.101-23.383c-2.312,0.215-4.422,0.418-6.268,0.603l-1.939,0.195&#10;&#9;&#9;c-10.025,1.016-14.596,1.479-17.873-2.196c-1.692-1.898-2.402-4.611-2.641-7.296c-0.201-2.272-0.085-4.428,0.016-5.875&#10;&#9;&#9;c0.18-2.572,0.379-3.953,2.391-5.422c1.391-1.015,2.884-1.239,5.688-1.531c2.546-0.266,6.398-0.633,9.903-0.904&#10;&#9;&#9;c2.597-0.201,5.212-0.366,7.332-0.424c3.702-0.103,5.913,0.128,7.929,3.25c1.306,2.02,1.92,5.148,2.586,10.906l0.004,0.027&#10;&#9;&#9;c1.875-0.166,3.765-0.329,5.639-0.486c6.024-0.505,12.388-0.995,18.326-1.384l2.658-0.171c10.068-0.64,17.471-1.111,19.967-3.97&#10;&#9;&#9;c2.436-2.789,1.538-10.065-0.544-26.931l-0.824-6.738c-2.523-20.73-6.272-51.517-14.398-67.947&#10;&#9;&#9;c-3.92-7.927-8.874-12.386-14.625-14.711c-5.972-2.414-13.03-2.684-20.781-2.158c-10.749,0.73-22.756,2.99-33.964,5.1&#10;&#9;&#9;c-5.936,1.117-11.655,2.194-16.615,2.956c-7.715,1.186-14.442,1.777-20.069,1.659c-5.996-0.126-10.793-1.092-14.264-3.031&#10;&#9;&#9;c-8.024-4.484-7.48-10.968-8.778-17.51l-0.02-0.095l-0.019-0.096l-0.045-0.215l-0.033-0.156l-0.003-0.01l-0.021-0.095l-0.021-0.095&#10;&#9;&#9;l-0.006-0.027l-0.035-0.154l-0.002-0.01l-0.022-0.095l-0.022-0.095l-0.022-0.096l-0.021-0.088l-0.073-0.293l-0.034-0.129&#10;&#9;&#9;l-0.066-0.25l-0.021-0.079l-0.005-0.017l-0.001-0.005c-0.034-0.125-0.07-0.25-0.107-0.375l0,0l-0.001-0.004l-0.002-0.005&#10;&#9;&#9;c-0.036-0.124-0.074-0.248-0.113-0.371l-0.008-0.024l-0.004-0.014c-0.038-0.12-0.077-0.239-0.117-0.358l-0.019-0.053&#10;&#9;&#9;c-0.041-0.121-0.083-0.242-0.127-0.362l-0.007-0.019c-0.046-0.127-0.094-0.254-0.143-0.381l-0.005-0.011l-0.003-0.008&#10;&#9;&#9;c-0.049-0.126-0.1-0.252-0.151-0.377l-0.006-0.012c-0.055-0.132-0.111-0.264-0.17-0.396l-0.001-0.003&#10;&#9;&#9;c-0.057-0.127-0.115-0.255-0.175-0.382l-0.012-0.024c-0.124-0.26-0.254-0.519-0.394-0.776c-1.043-1.934-2.192-3.27-4.11-3.967&#10;&#9;&#9;l-0.101-0.036l-55.978,2.894l-0.614,0.032c-1.177-0.014-2.316-0.455-3.201-1.252c-0.963-0.867-1.536-2.079-1.602-3.365&#10;&#9;&#9;c-0.211-52.119,39.702-95.905,91.783-100.372c2.409,0.685,4.409,2.488,5.295,4.933c0.533-2.386,2.148-4.319,4.277-5.303&#10;&#9;&#9;c51.048,0.427,93.827,39.324,98.975,90.23c0.113,1.339-0.332,2.667-1.234,3.668c-0.797,0.885-1.887,1.44-3.056,1.575l-0.614,0.032&#10;&#9;&#9;l-86.253,4.458c-3.372,0.082-6.402-2.046-7.472-5.244c-0.833,3.339-3.721,5.761-7.154,6l-14.549,0.752&#10;&#9;&#9;c-0.495,0.313-0.957,0.632-1.364,0.958c-2.889,2.309-3.078,4.959-3.312,7.145l0.004,0.047l0.005,0.047l0.005,0.047l0.005,0.047&#10;&#9;&#9;l0.004,0.047l0.005,0.047l0.001,0.013l0.003,0.034l0.005,0.047l0.005,0.047l0.005,0.047l0.004,0.046l0.005,0.047l0.003,0.026&#10;&#9;&#9;l0.002,0.021l0.004,0.046l0.005,0.046l0.005,0.046l0.004,0.046l0.005,0.046l0.004,0.038l0.001,0.008l0.005,0.046l0.005,0.046&#10;&#9;&#9;l0.004,0.046l0.005,0.046l0.005,0.046l0.004,0.046l0.001,0.005l0.004,0.042l0.005,0.046l0.005,0.046l0.005,0.045l0.004,0.046&#10;&#9;&#9;l0.006,0.046l0.001,0.017l0.003,0.028l0.005,0.046l0.005,0.045l0.005,0.045l0.005,0.045l0.005,0.045l0.003,0.029l0.002,0.016&#10;&#9;&#9;l0.005,0.045l0.005,0.045l0.004,0.045l0.005,0.045l0.005,0.045l0.005,0.042v0.003l0.005,0.045l0.005,0.045l0.005,0.045l0.006,0.044&#10;&#9;&#9;l0.004,0.045l0.006,0.045l0.001,0.009l0.009,0.08l0.005,0.044l0.005,0.044l0.006,0.044l0.004,0.044l0.003,0.021l0.003,0.023&#10;&#9;&#9;l0.005,0.044l0.005,0.044l0.006,0.044l0.005,0.044l0.005,0.044l0.004,0.033l0.002,0.011l0.005,0.043&#10;&#9;&#9;c0.591,4.938,1.56,8.788,4.688,10.542c2.3,1.284,5.858,1.932,10.546,2.031c5.057,0.106,11.346-0.462,18.725-1.596&#10;&#9;&#9;c5.249-0.807,10.689-1.831,16.334-2.894c11.455-2.155,23.728-4.466,34.901-5.225c8.811-0.598,16.972-0.235,24.281,2.72&#10;&#9;&#9;c7.529,3.044,13.921,8.692,18.812,18.585c8.743,17.68,12.59,49.27,15.18,70.542l0.824,6.707c2.385,19.314,3.413,27.646-1.394,33.15&#10;&#9;&#9;c-4.687,5.367-13.492,5.927-25.467,6.688l-2.658,0.171c-5.428,0.356-11.805,0.851-18.17,1.384&#10;&#9;&#9;c-1.868,0.157-3.694,0.313-5.461,0.467c0.696,7.121,1.442,15.727,2.108,23.412c0.553,6.38,0.792,9.263,0.928,10.768l0.172,1.881&#10;&#9;&#9;c1.095,12.064,1.449,15.964-3.03,19.119c-1.983,1.397-4.751,2.143-8.586,2.578c-3.218,0.365-7.459,0.542-12.867,0.766l-0.755,0.031&#10;&#9;&#9;c-10.414,0.432-24.932,1.033-35.464,1.531l-0.884,0.042c-11.117,0.528-17.498,0.832-21.663-3.245&#10;&#9;&#9;c-3.987-3.905-4.149-10.121-4.56-25.979l-0.065-2.521c-0.215-8.135-0.544-19.018-0.887-29.907&#10;&#9;&#9;c-0.34-10.796-0.691-21.532-0.957-29.562c-0.262-7.916-0.439-13.168-0.801-16.699c-0.279-2.73-0.574-4.022-1.027-4.551&#10;&#9;&#9;l-0.014-0.016c-0.176-0.182-0.499-0.255-0.854-0.246c-0.487,0.012-0.944,0.166-1.237,0.417l-0.028,0.025&#10;&#9;&#9;c-0.172,0.186-0.27,0.874-0.354,3.62c-0.125,4.031,0.085,10.978,0.473,23.231l0.085,2.684c0.801,25.204,2.187,68.864,1.884,92.019&#10;&#9;&#9;c-0.163,12.465-0.854,19.288-2.508,23.328c-2.248,5.493-5.49,6.477-10.43,7.094c-4.05,0.506-9.546,0.741-15.125-2.172&#10;&#9;&#9;c-5.432-2.837-10.639-8.568-13.938-19.797c-3.04-10.348-4.519-25.673-5.211-41.422c-0.681-15.498-0.602-31.534-0.508-43.484&#10;&#9;&#9;l0.049-5.757c0.16-18.612,0.215-25.014-1.236-28.384c-0.579-1.348-1.48-2.243-2.586-2.844c-1.366-0.744-3.13-1.151-5.07-1.406&#10;&#9;&#9;c-1.734-0.228-3.527-0.326-4.805,0.328c-1.261,0.646-2.41,2.236-3.242,5.562c-2.105,8.423-1.486,25.544-0.607,49.849l0.499,13.944&#10;&#9;&#9;c0.845,23.756,1.815,51.021,2.842,68.646c0.569,9.758,1.136,16.272,2.836,20.438c1.376,3.369,3.811,5.222,8.273,6.422&#10;&#9;&#9;c10.28,2.763,29.702,2.331,46.404,1.959l6.879-0.146c6.032-0.121,11.513-0.232,16.33-0.54c0.479-7.113,1.325-13.63,2.777-18.647&#10;&#9;&#9;c1.975-6.822,5.079-11.069,8.47-13.624c5.161-3.889,10.862-3.833,14.593-2.876c3.86,0.989,6.042,2.912,7.188,5.969&#10;&#9;&#9;c0.917,2.445,0.916,5.343,0.547,9.031c-0.341,3.408-0.996,7.655-2.641,11.766c-1.75,4.376-4.588,8.537-9.266,11.375&#10;&#9;&#9;c-3.712,2.251-8.426,3.525-14.063,4.279c-0.325,9.125-0.201,18.876-0.095,27.308c0.032,2.563,0.063,5.008,0.08,7.365&#10;&#9;&#9;c0.067,9.338-0.124,15.986-2.797,21.109c-2.901,5.562-8.108,8.646-17.844,10.11c-5.412,0.813-12.428,1.139-20.094,1.158&#10;&#9;&#9;c0.14,14.927-0.188,30.6-0.423,41.843l-0.093,4.491c-0.293,14.695-5.642,14.696-3.859,14.696c2.209,0,4,1.79,4,3.999h33.54h15.002&#10;&#9;&#9;h0.013h0.041h0.068h0.096h0.104h0.018h0.149h0.177h0.114h0.09h0.231h0.125h0.133h0.286h0.016h0.297h0.126h0.214h0.196h0.172h0.227&#10;&#9;&#9;h0.167h0.221h0.201h0.173h0.275h0.088h0.352h0.037h0.302h0.201h0.126h0.315h0.089h0.215h0.292h0.051h0.229h0.268h0.089h0.168h0.243&#10;&#9;&#9;h0.201h0.031h0.22h0.208h0.181h0.016h0.186h0.172h0.161h0.133h0.017h0.136h0.125h0.113h0.102h0.089h0.077h0.035h0.03h0.054h0.042&#10;&#9;&#9;h0.029h0.018h0.006h46.335c0.538-0.282,1.072-0.57,1.604-0.863l0.352-0.195c0.442-0.245,0.882-0.493,1.319-0.744l0.271-0.156&#10;&#9;&#9;c24.299-14.047,41.62-37.525,47.94-64.733l0.115-0.502c0.091-0.399,0.179-0.8,0.265-1.2c0.045-0.209,0.09-0.418,0.134-0.628&#10;&#9;&#9;c0.097-0.463,0.188-0.927,0.278-1.392c0.061-0.312,0.117-0.624,0.175-0.937c0.062-0.334,0.122-0.668,0.181-1.003&#10;&#9;&#9;c0.048-0.278,0.094-0.557,0.14-0.835c0.052-0.312,0.101-0.625,0.149-0.938c0.042-0.269,0.083-0.537,0.122-0.807l0.034-0.22&#10;&#9;&#9;c0.046-0.32,0.088-0.642,0.131-0.963c0.024-0.181,0.052-0.361,0.074-0.542c0.075-0.579,0.145-1.158,0.208-1.737l0.047-0.442&#10;&#9;&#9;c0.056-0.518,0.106-1.034,0.154-1.552l0.021-0.224c1.239-13.879-0.411-27.702-4.676-40.659l-0.065-0.193&#10;&#9;&#9;c-0.159-0.48-0.322-0.96-0.488-1.438c-0.079-0.227-0.157-0.454-0.237-0.681c-0.075-0.211-0.152-0.422-0.229-0.633&#10;&#9;&#9;c-4.73-13.06-12.015-24.733-21.174-34.525l-0.403-0.43c-0.235-0.249-0.473-0.497-0.711-0.744c-0.218-0.226-0.438-0.449-0.657-0.673&#10;&#9;&#9;c-0.18-0.184-0.359-0.367-0.541-0.549c-0.37-0.372-0.744-0.741-1.121-1.107l0.002,0.005c-15.465-15.01-35.577-24.98-57.507-27.823&#10;&#9;&#9;l0.009,0.047l0.024,0.139l0.042,0.232l0.059,0.325l0.075,0.417l0.091,0.511l0.108,0.604l0.125,0.695l0.142,0.789l0.158,0.882&#10;&#9;&#9;l0.175,0.975l0.191,1.067l0.208,1.16l0.225,1.252l0.241,1.346l0.258,1.438l0.275,1.531l0.291,1.625l0.308,1.716l0.325,1.811&#10;&#9;&#9;l0.341,1.902l0.358,1.995l0.374,2.088l0.392,2.181l0.408,2.274l0.424,2.366l0.441,2.459l0.458,2.553l0.475,2.645l0.491,2.738&#10;&#9;&#9;l0.508,2.83l0.523,2.924l0.542,3.016l0.558,3.109l0.574,3.201l0.591,3.295l0.607,3.388l1.266,7.053l0.657,3.666l1.365,7.609&#10;&#9;&#9;l0.707,3.944l1.466,8.167l0.757,4.223l0.774,4.315l0.791,4.408l0.808,4.501l0.823,4.594l0.841,4.687l0.857,4.779l0.874,4.872&#10;&#9;&#9;l0.891,4.966l0.907,5.058l0.924,5.15l1.898,10.58l0.974,5.429l0.991,5.521l1.007,5.615l1.023,5.707l1.041,5.801l1.057,5.893&#10;&#9;&#9;c1.687,5.321,2.945,10.828,3.735,16.479c2.568,15.43,2.642,31.211,0.181,46.734c-2.424,11.462-9.173,23.275-20.248,35.44V848.551&#10;&#9;&#9;L1210.023,848.551z M1210.153,460.979c1.942-0.194,4.034-0.398,6.217-0.604c-0.51-4.39-0.863-6.597-1.349-7.349&#10;&#9;&#9;c-0.22-0.34-0.196,0.384-0.992,0.406c-1.692,0.047-4.237,0.214-6.957,0.424c-3.729,0.289-7.403,0.635-9.685,0.873&#10;&#9;&#9;c-0.413,0.043-0.721,0.048-0.954,0.038c-0.075,1.199-0.139,2.764-0.015,4.165c0.105,1.188,0.304,2.258,0.672,2.671&#10;&#9;&#9;c0.571,0.64,3.875,0.305,11.123-0.429L1210.153,460.979L1210.153,460.979z M1195.575,454.761c-0.43,0.313-0.202,0.162,0.131-0.053&#10;&#9;&#9;C1195.658,454.713,1195.618,454.729,1195.575,454.761L1195.575,454.761z M1163.663,587.784c3.917-0.616,7.122-1.547,9.505-2.992&#10;&#9;&#9;c2.947-1.788,4.798-4.564,5.984-7.531c1.293-3.233,1.826-6.737,2.109-9.578c0.257-2.562,0.317-4.415-0.078-5.469&#10;&#9;&#9;c-0.166-0.443-0.673-0.771-1.688-1.031c-2-0.513-5.055-0.545-7.812,1.532c-2.161,1.629-4.2,4.543-5.626,9.468&#10;&#9;&#9;C1164.859,576.327,1164.115,581.754,1163.663,587.784L1163.663,587.784z M1108.964,654.729c1.814,0.061,3.622,0.111,5.412,0.149&#10;&#9;&#9;c-0.191-8.194-0.57-15.804-1.24-21.845c-1.039-9.364-2.706-14.57-4.734-17.364c-1.475-2.032-3.293-2.533-5.203-2.612&#10;&#9;&#9;c-2.122-0.089-4.297,0.278-6.125,1.858c-2.154,1.862-4.081,5.386-5.438,11.626c-1.526,7.023-2.229,17.103-2.704,27.179&#10;&#9;&#9;C1095.346,654.128,1102.245,654.503,1108.964,654.729L1108.964,654.729z M1080.628,661.171c-2.418-0.169-4.699-0.334-6.805-0.489&#10;&#9;&#9;c-9.757-0.715-15.948-1.207-20.438-3.046c-5.312-2.176-7.784-5.69-9.297-12.297c-2.321-10.144-2.241-28.736-2.118-57.029&#10;&#9;&#9;l0.024-5.752c0.062-15.616,0.094-33.979,0-51.406c-0.093-17.353-0.312-33.797-0.75-45.688c-0.425-11.558-1.047-18.55-2.188-22.891&#10;&#9;&#9;c-0.872-3.323-2.019-4.708-3.703-5.609c-0.436-0.233-0.938-0.455-1.502-0.654c-1.627-0.574-3.496-0.782-5.258-0.198&#10;&#9;&#9;c-0.083,0.027-0.167,0.051-0.251,0.073c-1.713,0.648-3.422,2.128-4.885,4.862c-0.465,0.87-0.914,1.899-1.339,3.104&#10;&#9;&#9;c-2.108,5.974-3.173,15.284-3.688,26.796c-0.529,11.861-0.468,25.874-0.344,40.97c0.082,9.95,0.191,20.371,0.3,30.834&#10;&#9;&#9;c0.232,22.221,0.466,44.632,0.466,61.322l-0.046,13.498c-0.067,19.771-0.117,34.311,1.483,43.314&#10;&#9;&#9;c0.837,4.709,2.077,7.635,4.047,9.422c2.021,1.832,5.156,2.825,9.672,3.577c4.958,0.826,11.299,1.308,17.576,1.458&#10;&#9;&#9;c6.597,0.157,13.138-0.053,17.939-0.613c3.75-0.438,6.071-1.032,7.281-2.547c1.486-1.86,2.259-5.458,2.812-11.829&#10;&#9;&#9;c0.438-5.038,0.683-11.113,0.944-17.615L1080.628,661.171L1080.628,661.171z M1279.565,651.848&#10;&#9;&#9;c0.024-0.181,0.052-0.361,0.074-0.542" transform="matrix(1, 0, 0, 1, 0, 0)"/><path fill-rule="evenodd" clip-rule="evenodd" fill="#E5E8EC" d="M628.434,833.947h103.872c19.801,0,36,16.199,36,36V983.2&#10;&#9;&#9;&#9;H592.434V869.947C592.434,850.146,608.634,833.947,628.434,833.947z" transform="matrix(1, 0, 0, 1, 0, 0)"/><path fill-rule="evenodd" clip-rule="evenodd" fill="#F4F7F9" d="M516.834,376.538c0.129-2.2,2.019-3.879,4.219-3.75&#10;&#9;&#9;&#9;c2.2,0.129,3.879,2.019,3.75,4.219l-3.774,63.3c-0.008,1.325,0.335,2.615,0.967,3.756c0.645,1.167,1.602,2.167,2.801,2.874&#10;&#9;&#9;&#9;c1.186,0.7,2.527,1.05,3.876,1.05c1.349,0,2.689-0.35,3.876-1.05c1.198-0.707,2.156-1.707,2.801-2.874&#10;&#9;&#9;&#9;c0.657-1.188,1.002-2.537,0.964-3.918c-0.004-0.132-0.001-0.262,0.008-0.39l-0.008,0c0.28-3.79,2.039-7.133,4.678-9.495&#10;&#9;&#9;&#9;c2.635-2.357,6.145-3.732,9.934-3.592c3.803,0.141,7.209,1.771,9.66,4.316c2.447,2.54,3.948,6,3.947,9.802l-0.75,34.574&#10;&#9;&#9;&#9;c0.009,1.318,0.359,2.582,0.988,3.677c0.637,1.11,1.572,2.06,2.735,2.733c1.142,0.661,2.431,0.992,3.729,0.992&#10;&#9;&#9;&#9;s2.588-0.331,3.73-0.992c1.163-0.673,2.098-1.624,2.735-2.733c0.641-1.116,0.993-2.406,0.989-3.751l0.004-0.171l-0.004,0&#10;&#9;&#9;&#9;l4.118-91.526c-0.102-2.945,0.591-5.804,1.938-8.312c1.374-2.557,3.433-4.751,6.024-6.301c2.602-1.555,5.51-2.333,8.404-2.333&#10;&#9;&#9;&#9;s5.802,0.778,8.404,2.333c2.592,1.55,4.65,3.744,6.024,6.301c1.375,2.559,2.069,5.485,1.931,8.494&#10;&#9;&#9;&#9;c-2.407,44.444-2.101,89.658-4.126,134.207c-0.024,2.959-0.706,5.815-1.954,8.374c-1.267,2.6-3.133,4.928-5.497,6.781&#10;&#9;&#9;&#9;c-2.355,1.848-5.056,3.102-7.883,3.713c-2.651,0.573-5.433,0.587-8.165,0.004l-60.412-0.001c-2.092,0.159-3.956,1.096-5.312,2.517&#10;&#9;&#9;&#9;c-1.404,1.472-2.264,3.473-2.264,5.672s0.859,4.2,2.264,5.672c1.407,1.475,3.362,2.429,5.551,2.531l155.828,0.75&#10;&#9;&#9;&#9;c2.981-0.002,5.852,0.792,8.353,2.232c2.517,1.449,4.653,3.54,6.145,6.12c1.505,2.604,2.259,5.499,2.259,8.382&#10;&#9;&#9;&#9;s-0.753,5.777-2.259,8.382c-1.492,2.58-3.628,4.672-6.145,6.12c-2.502,1.44-5.373,2.234-8.353,2.232l-88.5,0.375&#10;&#9;&#9;&#9;c-0.11,0.001-0.22-0.004-0.327-0.012l-0.001,0.012c-1.303-0.104-2.577,0.061-3.746,0.464c-1.171,0.404-2.273,1.061-3.229,1.941&#10;&#9;&#9;&#9;c-0.939,0.864-1.679,1.911-2.187,3.063c-0.513,1.164-0.788,2.414-0.792,3.672h0.016v49.64c0,2.209-1.791,4-4,4s-4-1.791-4-4&#10;&#9;&#9;&#9;v-49.64h0.016c0.007-2.418,0.51-4.761,1.448-6.891c0.943-2.142,2.328-4.095,4.093-5.72c1.748-1.61,3.81-2.826,6.041-3.598&#10;&#9;&#9;&#9;c2.228-0.77,4.591-1.087,6.947-0.902l88.205-0.374c1.574,0.003,3.087-0.414,4.4-1.17c1.302-0.749,2.417-1.848,3.207-3.215&#10;&#9;&#9;&#9;c0.776-1.343,1.165-2.856,1.165-4.381s-0.389-3.038-1.165-4.381c-0.79-1.367-1.905-2.465-3.207-3.215&#10;&#9;&#9;&#9;c-1.313-0.756-2.826-1.172-4.4-1.17l-155.834-0.749c-0.117,0.005-0.234,0.005-0.354-0.001c-4.319-0.203-8.178-2.087-10.957-5&#10;&#9;&#9;&#9;c-2.782-2.916-4.483-6.856-4.483-11.172s1.701-8.256,4.483-11.172c2.703-2.834,6.429-4.692,10.604-4.979&#10;&#9;&#9;&#9;c0.177-0.023,0.356-0.036,0.54-0.036h60.75v0.013c0.309,0,0.624,0.036,0.938,0.112c1.699,0.414,3.459,0.424,5.149,0.059&#10;&#9;&#9;&#9;c1.691-0.366,3.29-1.103,4.665-2.181c1.365-1.071,2.458-2.445,3.216-4.001c0.747-1.532,1.157-3.209,1.173-4.914l0-0.197&#10;&#9;&#9;&#9;l4.125-134.313c0.071-1.547-0.286-3.052-0.993-4.369c-0.709-1.319-1.764-2.447-3.087-3.238c-1.313-0.785-2.805-1.178-4.311-1.178&#10;&#9;&#9;&#9;s-2.998,0.393-4.311,1.178c-1.323,0.791-2.378,1.919-3.087,3.238c-0.707,1.316-1.064,2.821-0.993,4.369&#10;&#9;&#9;&#9;c0.005,0.113,0.005,0.228,0,0.344l-4.125,91.688c-0.022,2.688-0.749,5.28-2.051,7.547c-1.333,2.322-3.26,4.293-5.641,5.671&#10;&#9;&#9;&#9;c-2.402,1.39-5.071,2.085-7.73,2.085s-5.328-0.696-7.73-2.085c-2.38-1.378-4.308-3.349-5.641-5.671&#10;&#9;&#9;&#9;c-1.319-2.296-2.048-4.925-2.051-7.65v-0.147l0.75-34.48c-0.015-1.628-0.668-3.114-1.727-4.213&#10;&#9;&#9;&#9;c-1.067-1.108-2.545-1.817-4.192-1.878c-1.661-0.061-3.194,0.536-4.339,1.561c-1.125,1.006-1.879,2.431-2.017,4.052&#10;&#9;&#9;&#9;c0.02,2.733-0.668,5.362-1.938,7.658c-1.332,2.407-3.292,4.462-5.738,5.905c-2.458,1.449-5.203,2.174-7.938,2.174&#10;&#9;&#9;&#9;c-2.736,0-5.481-0.726-7.938-2.174c-2.446-1.442-4.407-3.498-5.738-5.905c-1.283-2.319-1.972-4.978-1.938-7.74&#10;&#9;&#9;&#9;c-0.004-0.121-0.002-0.243,0.005-0.366L516.834,376.538z" transform="matrix(1, 0, 0, 1, 0, 0)"/><path fill-rule="evenodd" clip-rule="evenodd" fill="#E5E8EC" d="M584.798,635.035v11.578c0,2.093-1.607,3.81-3.654,3.984h-0.692&#10;&#9;&#9;&#9;c-2.047-0.175-3.654-1.892-3.654-3.984v-11.578H584.798z" transform="matrix(1, 0, 0, 1, 0, 0)"/><path fill-rule="evenodd" clip-rule="evenodd" fill="#E5E8EC" d="M516.834,376.538c0.022-0.382,0.098-0.749,0.219-1.093&#10;&#9;&#9;&#9;l7.644,0.38c0.092,0.377,0.13,0.774,0.106,1.182l-0.644,10.807l-7.973-0.396L516.834,376.538z" transform="matrix(1, 0, 0, 1, 0, 0)"/><path fill-rule="evenodd" clip-rule="evenodd" fill="#FFFFFF" d="M615.711,833.947h103.873c19.8,0,36,16.199,36,36V983.2H579.711&#10;&#9;&#9;&#9;V869.947C579.711,850.146,595.911,833.947,615.711,833.947z" transform="matrix(1, 0, 0, 1, 0, 0)"/><path fill-rule="evenodd" clip-rule="evenodd" fill="#CACFD7" d="M615.711,833.947h1.5V983.2h-14.25V836.296&#10;&#9;&#9;&#9;C606.929,834.78,611.227,833.947,615.711,833.947L615.711,833.947z M718.46,833.947h14.25V983.2h-14.25V833.947L718.46,833.947z&#10;&#9;&#9;&#9; M674.961,983.2h-14.25V863.946h14.25V983.2z" transform="matrix(1, 0, 0, 1, 0, 0)"/><path fill-rule="evenodd" clip-rule="evenodd" fill="#F7C46C" d="M700.877,735.194h-61.5v105c0,16.913,13.837,30.75,30.75,30.75&#10;&#9;&#9;&#9;l0,0c16.913,0,30.75-13.837,30.75-30.75V735.194z" transform="matrix(1, 0, 0, 1, 0, 0)"/><path fill-rule="evenodd" clip-rule="evenodd" fill="#F39E39" d="M700.877,735.194h-61.5v88.508&#10;&#9;&#9;&#9;c6.702-2.521,13.487-5.637,20.049-9.446c15.585-9.049,29.909-22.001,41.451-33.554V735.194z" transform="matrix(1, 0, 0, 1, 0, 0)"/><path fill-rule="evenodd" clip-rule="evenodd" fill="#151C29" d="M752.375,485.63c-32.172-19.387-48.258-29.081-48.258-29.081&#10;&#9;&#9;&#9;c21.019-2.26,41.971,4.808,57.326,19.337C755.398,482.382,752.375,485.63,752.375,485.63z" transform="matrix(1, 0, 0, 1, 0, 0)"/><path fill-rule="evenodd" clip-rule="evenodd" fill="#F7C46C" d="M738.212,646.612c3.329,10.504,4.992,21.73,4.675,33.365&#10;&#9;&#9;&#9;c-0.688,25.22-5.189,42.193-21.937,60.228c-3.555,4.468-7.478,8.624-11.722,12.427c-12.586,13.18-30.197,30.741-49.803,42.123&#10;&#9;&#9;&#9;c-21.585,12.533-45.589,17.574-61.074,18.508c-15.485,0.933-22.449-2.241-29.915-9.428c-7.465-7.188-15.432-18.389-20.181-40.623&#10;&#9;&#9;&#9;c-4.563-21.359-6.156-52.894-6.834-71.616c-0.796-5.588-1.138-11.315-0.979-17.147c0.265-9.693,1.885-19.029,4.671-27.836H738.212&#10;&#9;&#9;&#9;z" transform="matrix(1, 0, 0, 1, 0, 0)"/><path fill-rule="evenodd" clip-rule="evenodd" fill="#F7C46C" d="M791.166,541.833c6.627,43.787-15.853,85.258-52.953,104.779&#10;&#9;&#9;&#9;L704.118,456.55C747.785,462.211,784.249,496.126,791.166,541.833z" transform="matrix(1, 0, 0, 1, 0, 0)"/><path fill-rule="evenodd" clip-rule="evenodd" fill="#FFFFFF" d="M621.884,760.387c-0.354,12.973-11.152,23.202-24.113,22.849&#10;&#9;&#9;&#9;c-12.996-0.355-23.22-11.158-22.865-24.132L621.884,760.387z" transform="matrix(1, 0, 0, 1, 0, 0)"/><path fill-rule="evenodd" clip-rule="evenodd" fill="#303B47" d="M560.5,699.171L560.5,699.171&#10;&#9;&#9;&#9;c3.354,0.091,6.022,2.91,5.931,6.264l-0.233,8.536c-0.092,3.354-2.91,6.023-6.264,5.932l0,0c-3.354-0.092-6.023-2.91-5.931-6.265&#10;&#9;&#9;&#9;l0.233-8.536C554.327,701.747,557.146,699.079,560.5,699.171z" transform="matrix(1, 0, 0, 1, 0, 0)"/><path fill-rule="evenodd" clip-rule="evenodd" fill="#303B47" d="M641.803,701.391L641.803,701.391&#10;&#9;&#9;&#9;c3.354,0.092,6.023,2.91,5.932,6.265l-0.233,8.536c-0.092,3.354-2.91,6.022-6.265,5.932l0,0c-3.354-0.092-6.022-2.91-5.931-6.265&#10;&#9;&#9;&#9;l0.233-8.536C635.631,703.968,638.449,701.299,641.803,701.391z" transform="matrix(1, 0, 0, 1, 0, 0)"/><path fill-rule="evenodd" clip-rule="evenodd" fill="#F39E39" d="M738.212,646.612c-22.729-126.708-34.095-190.062-34.095-190.062&#10;&#9;&#9;&#9;C732.92,515.506,744.727,581.321,738.212,646.612z" transform="matrix(1, 0, 0, 1, 0, 0)"/><path fill-rule="evenodd" clip-rule="evenodd" fill="#303B47" d="M641.526,677.479c17.865,0,32.348,14.483,32.348,32.349&#10;&#9;&#9;&#9;c0,17.864-14.483,32.348-32.348,32.348c-17.411,0-31.606-13.756-32.318-30.991c-0.196-0.191-0.376-0.404-0.535-0.64&#10;&#9;&#9;&#9;c-0.633-0.938-1.413-1.701-2.286-2.29c-1.588-1.071-3.487-1.592-5.392-1.576c-1.919,0.016-3.842,0.577-5.459,1.669&#10;&#9;&#9;&#9;c-0.919,0.62-1.735,1.417-2.389,2.385c-0.12,0.177-0.251,0.342-0.393,0.494c-0.733,17.216-14.92,30.949-32.316,30.949&#10;&#9;&#9;&#9;c-17.865,0-32.348-14.483-32.348-32.348c0-17.865,14.483-32.349,32.348-32.349c14.928,0,27.492,10.113,31.221,23.861&#10;&#9;&#9;&#9;c2.792-1.719,6.034-2.604,9.274-2.631c3.279-0.027,6.562,0.823,9.387,2.574C614.069,687.565,626.619,677.479,641.526,677.479&#10;&#9;&#9;&#9;L641.526,677.479z M586.486,710.679c-0.775-1.192-0.875-2.748-0.181-4.053c-1.579-12.884-12.557-22.86-25.866-22.86&#10;&#9;&#9;&#9;c-14.394,0-26.062,11.668-26.062,26.062c0,14.394,11.668,26.062,26.062,26.062C574.547,735.89,586.036,724.678,586.486,710.679&#10;&#9;&#9;&#9;L586.486,710.679z M615.65,706.715c0.508,1.162,0.421,2.48-0.181,3.554c0.236,14.189,11.811,25.621,26.057,25.621&#10;&#9;&#9;&#9;c14.394,0,26.062-11.668,26.062-26.062c0-14.395-11.668-26.062-26.062-26.062C628.186,683.766,617.188,693.789,615.65,706.715z" transform="matrix(1, 0, 0, 1, 0, 0)"/><path fill-rule="evenodd" clip-rule="evenodd" fill="#303B47" d="M718.722,742.908c2.944-6.562,1.349-14.272-3.958-19.126&#10;&#9;&#9;&#9;c-5.308-4.854-13.129-5.758-19.403-2.24c-13.138-22.841-20.39-48.59-21.104-74.93c42.637,0,63.956,0,63.956,0&#10;&#9;&#9;&#9;C750.827,679.784,743.243,717.253,718.722,742.908z" transform="matrix(1, 0, 0, 1, 0, 0)"/><path fill-rule="evenodd" clip-rule="evenodd" fill="#F7C46C" d="M715.305,691.371L715.305,691.371&#10;&#9;&#9;&#9;c10.509,0.287,18.872,9.12,18.585,19.628l-0.633,23.173c-0.287,10.508-9.119,18.871-19.628,18.584h-0.001&#10;&#9;&#9;&#9;c-10.508-0.287-18.871-9.12-18.583-19.628l0.632-23.173C695.965,699.447,704.797,691.085,715.305,691.371z" transform="matrix(1, 0, 0, 1, 0, 0)"/><path fill-rule="evenodd" clip-rule="evenodd" fill="#303B47" d="M782.444,473.263c-2.714-2.506-4.541-5.796-3.566-9.36&#10;&#9;&#9;&#9;c0.974-3.563,4.141-6.088,7.832-6.243c-4.633-5.12-11.741-7.216-18.411-5.43c-6.669,1.787-11.777,7.157-13.229,13.908&#10;&#9;&#9;&#9;c-8.289,47.081-3.755,95.524,13.126,140.25c-9.695-3.124-20.312-1.149-28.237,5.25c-1.163,23.316-1.745,34.975-1.745,34.975&#10;&#9;&#9;&#9;c19.333-0.608,36.57-12.339,44.231-30.1c19.417-18.77,30.381-44.619,30.381-71.625S802.289,491.579,782.444,473.263z" transform="matrix(1, 0, 0, 1, 0, 0)"/><path fill-rule="evenodd" clip-rule="evenodd" fill="#F39E39" d="M714.86,707.693L714.86,707.693&#10;&#9;&#9;&#9;c4.92,0.135,8.836,4.27,8.701,9.189l-0.296,10.85c-0.135,4.92-4.27,8.836-9.19,8.701l0,0c-4.801-0.131-8.645-4.072-8.703-8.835&#10;&#9;&#9;&#9;c3.055-0.047,5.516-2.536,5.516-5.602c0-2.965-2.303-5.392-5.218-5.589l0.001-0.014C705.804,711.475,709.94,707.56,714.86,707.693&#10;&#9;&#9;&#9;z" transform="matrix(1, 0, 0, 1, 0, 0)"/><path fill-rule="evenodd" clip-rule="evenodd" fill="#CACFD7" d="M500.066,363.726l42.697,2.123&#10;&#9;&#9;&#9;&#9;c3.296,0.164,5.859,2.994,5.695,6.291l0,0c-0.164,3.296-2.994,5.858-6.291,5.695l-42.697-2.123&#10;&#9;&#9;&#9;&#9;c-3.296-0.164-5.859-2.995-5.695-6.291l0,0C493.939,366.124,496.771,363.562,500.066,363.726z" transform="matrix(1, 0, 0, 1, 0, 0)"/><path fill-rule="evenodd" clip-rule="evenodd" fill="#E5E8EC" d="M500.662,351.74l42.697,2.122&#10;&#9;&#9;&#9;&#9;c3.296,0.164,5.858,2.995,5.695,6.291l0,0c-0.164,3.296-2.995,5.858-6.291,5.695l-42.697-2.123&#10;&#9;&#9;&#9;&#9;c-3.296-0.164-5.859-2.995-5.695-6.291l0,0C494.535,354.139,497.366,351.576,500.662,351.74z" transform="matrix(1, 0, 0, 1, 0, 0)"/><path fill-rule="evenodd" clip-rule="evenodd" fill="#F4F7F9" d="M501.258,339.754l42.697,2.123&#10;&#9;&#9;&#9;&#9;c3.296,0.164,5.859,2.995,5.695,6.291l0,0c-0.164,3.296-2.995,5.859-6.291,5.695l-42.697-2.122&#10;&#9;&#9;&#9;&#9;c-3.296-0.164-5.858-2.995-5.695-6.291l0,0C495.131,342.153,497.962,339.591,501.258,339.754z" transform="matrix(1, 0, 0, 1, 0, 0)"/><path fill-rule="evenodd" clip-rule="evenodd" fill="#FAE15F" d="M527.277,235.543c25.029,1.245,44.311,22.543,43.066,47.572&#10;&#9;&#9;&#9;&#9;c-0.704,14.16-7.828,26.479-18.414,34.283l0.002,0.001l-0.021,0.012c-0.789,0.582-1.598,1.137-2.424,1.667&#10;&#9;&#9;&#9;&#9;c-3.623,2.987-5.878,7.385-6.128,12.163l-0.526,10.58l-41.575-2.067l0.526-10.58c0.226-4.779-1.583-9.379-4.891-12.71&#10;&#9;&#9;&#9;&#9;c-0.77-0.609-1.519-1.242-2.247-1.899l-0.02-0.014l0.002-0.002c-9.76-8.815-15.627-21.78-14.923-35.94&#10;&#9;&#9;&#9;&#9;C480.95,253.58,502.249,234.299,527.277,235.543z" transform="matrix(1, 0, 0, 1, 0, 0)"/><path fill-rule="evenodd" clip-rule="evenodd" fill="#FAF074" d="M527.277,235.543c25.029,1.245,44.311,22.543,43.066,47.572&#10;&#9;&#9;&#9;&#9;c-0.223,4.49-1.093,8.795-2.513,12.829c-9.185,13.923-25.278,22.771-43.143,21.883c-22.194-1.103-40.181-16.885-45.035-37.482&#10;&#9;&#9;&#9;&#9;c0.007-0.576,0.023-1.155,0.052-1.735C480.95,253.58,502.249,234.299,527.277,235.543z" transform="matrix(1, 0, 0, 1, 0, 0)"/><path d="M 546.823997 282.940002 A 21.527 21.527 0 0 1 525.296997 304.467003 A 21.527 21.527 0 0 1 503.769997 282.940002 A 21.527 21.527 0 0 1 525.296997 261.413002 A 21.527 21.527 0 0 1 546.823997 282.940002 Z" opacity="0.5" fill-rule="evenodd" clip-rule="evenodd" fill="#FFFFFF" transform="matrix(1, 0, 0, 1, 0, 0)"/><path d="M 533.142997 282.940002 A 7.846 7.846 0 0 1 525.296997 290.786003 A 7.846 7.846 0 0 1 517.450997 282.940002 A 7.846 7.846 0 0 1 525.296997 275.094002 A 7.846 7.846 0 0 1 533.142997 282.940002 Z" fill-rule="evenodd" clip-rule="evenodd" fill="#FFFFFF" transform="matrix(1, 0, 0, 1, 0, 0)"/><path fill-rule="evenodd" clip-rule="evenodd" fill="#F7986D" d="M599.925,704.997L599.925,704.997&#10;&#9;&#9;&#9;c-5.416,0-9.846,4.43-9.846,9.846v28.627c0,5.415,4.431,9.846,9.846,9.846l0,0c5.415,0,9.846-4.431,9.846-9.846v-28.627&#10;&#9;&#9;&#9;C609.771,709.427,605.34,704.997,599.925,704.997z" transform="matrix(1, 0, 0, 1, 0, 0)"/><path fill-rule="evenodd" clip-rule="evenodd" fill="#E5E8EC" d="M700.877,833.947c1.038,9.025-1.659,18.084-7.467,25.071&#10;&#9;&#9;&#9;s-14.219,11.296-23.283,11.926c10.973,13.585,16.459,20.377,16.459,20.377c10.972-4.244,19.191-13.562,22.035-24.979&#10;&#9;&#9;&#9;C711.465,854.928,708.577,842.843,700.877,833.947z" transform="matrix(1, 0, 0, 1, 0, 0)"/><path fill-rule="evenodd" clip-rule="evenodd" fill="#E5E8EC" d="M639.377,833.947c-1.038,9.025,1.66,18.084,7.467,25.071&#10;&#9;&#9;&#9;c5.808,6.987,14.22,11.296,23.283,11.926c-10.973,13.585-16.459,20.377-16.459,20.377c-10.972-4.244-19.192-13.562-22.035-24.979&#10;&#9;&#9;&#9;C628.79,854.928,631.679,842.843,639.377,833.947z" transform="matrix(1, 0, 0, 1, 0, 0)"/><path fill-rule="evenodd" clip-rule="evenodd" fill="#FAF074" d="M505.877,175.922L505.877,175.922&#10;&#9;&#9;&#9;c2.59-0.694,5.276,0.857,5.97,3.447l6.891,25.718c0.694,2.59-0.857,5.276-3.447,5.97h0c-2.59,0.694-5.276-0.857-5.97-3.447&#10;&#9;&#9;&#9;l-6.891-25.718C501.736,179.303,503.287,176.616,505.877,175.922z" transform="matrix(1, 0, 0, 1, 0, 0)"/><path fill-rule="evenodd" clip-rule="evenodd" fill="#FAF074" d="M455.35,366.23L455.35,366.23&#10;&#9;&#9;&#9;c-2.188-1.55-2.71-4.608-1.161-6.796l15.389-21.728c1.55-2.188,4.608-2.71,6.796-1.161l0,0c2.188,1.55,2.71,4.607,1.16,6.795&#10;&#9;&#9;&#9;l-15.389,21.728C460.596,367.258,457.539,367.78,455.35,366.23z" transform="matrix(1, 0, 0, 1, 0, 0)"/><path fill-rule="evenodd" clip-rule="evenodd" fill="#FAF074" d="M612.546,347.882L612.546,347.882&#10;&#9;&#9;&#9;c-1.419,2.275-4.44,2.976-6.716,1.557l-22.593-14.088c-2.275-1.419-2.976-4.441-1.557-6.716v0c1.418-2.275,4.44-2.976,6.716-1.557&#10;&#9;&#9;&#9;l22.592,14.089C613.265,342.585,613.965,345.606,612.546,347.882z" transform="matrix(1, 0, 0, 1, 0, 0)"/><path fill-rule="evenodd" clip-rule="evenodd" fill="#FAF074" d="M435.892,221L435.892,221c1.341-2.323,4.337-3.125,6.659-1.785&#10;&#9;&#9;&#9;l23.058,13.312c2.322,1.341,3.125,4.337,1.785,6.659l0,0c-1.34,2.322-4.337,3.125-6.659,1.784l-23.059-13.313&#10;&#9;&#9;&#9;C435.354,226.318,434.551,223.321,435.892,221z" transform="matrix(1, 0, 0, 1, 0, 0)"/><path fill-rule="evenodd" clip-rule="evenodd" fill="#FAF074" d="M632.913,267.166L632.913,267.166&#10;&#9;&#9;&#9;c0.605,2.612-1.036,5.245-3.647,5.85l-25.938,6.014c-2.612,0.605-5.244-1.036-5.849-3.648h0c-0.605-2.612,1.036-5.245,3.648-5.85&#10;&#9;&#9;&#9;l25.938-6.013C629.675,262.913,632.307,264.554,632.913,267.166z" transform="matrix(1, 0, 0, 1, 0, 0)"/><path fill-rule="evenodd" clip-rule="evenodd" fill="#FAF074" d="M418.28,302.36L418.28,302.36&#10;&#9;&#9;&#9;c-0.694-2.59,0.857-5.277,3.447-5.971l25.718-6.891c2.59-0.694,5.276,0.857,5.97,3.447v0c0.694,2.59-0.857,5.276-3.447,5.97&#10;&#9;&#9;&#9;l-25.718,6.892C421.66,306.501,418.974,304.95,418.28,302.36z" transform="matrix(1, 0, 0, 1, 0, 0)"/><path fill-rule="evenodd" clip-rule="evenodd" fill="#FAF074" d="M590.239,195.69L590.239,195.69&#10;&#9;&#9;&#9;c2.275,1.419,2.976,4.441,1.557,6.716L577.708,225c-1.418,2.275-4.441,2.976-6.716,1.557l0,0&#10;&#9;&#9;&#9;c-2.275-1.419-2.976-4.441-1.557-6.716l14.088-22.593C584.942,194.972,587.964,194.271,590.239,195.69z" transform="matrix(1, 0, 0, 1, 0, 0)"/><path fill-rule="evenodd" clip-rule="evenodd" fill="#5F5254" d="M1062.429,767.2h121.5c59.399,0,108,48.6,108,108v108h-337.5&#10;&#9;&#9;&#9;v-108C954.429,815.8,1003.029,767.2,1062.429,767.2z" transform="matrix(1, 0, 0, 1, 0, 0)"/><path fill-rule="evenodd" clip-rule="evenodd" fill="#6C5F5E" d="M1062.429,767.2h84c59.399,0,108,48.6,108,108v108h-300v-108&#10;&#9;&#9;&#9;C954.429,815.8,1003.029,767.2,1062.429,767.2z" transform="matrix(1, 0, 0, 1, 0, 0)"/><path fill-rule="evenodd" clip-rule="evenodd" fill="#F9A348" d="M1153,649.154h-100.975V821.55&#10;&#9;&#9;&#9;c0,27.769,22.719,50.487,50.487,50.487l0,0c27.769,0,50.487-22.719,50.487-50.487V649.154z" transform="matrix(1, 0, 0, 1, 0, 0)"/><path fill-rule="evenodd" clip-rule="evenodd" fill="#F48E27" d="M1153,673.904h-100.975V829.3&#10;&#9;&#9;&#9;c14.405-2.354,32.225-7.551,48.646-17.084c19.605-11.383,37.216-28.944,49.802-42.124c0.856-0.767,1.698-1.548,2.527-2.343&#10;&#9;&#9;&#9;V673.904z" transform="matrix(1, 0, 0, 1, 0, 0)"/><path fill-rule="evenodd" clip-rule="evenodd" fill="#F9A348" d="M1169.332,646.612c3.328,10.504,4.992,21.73,4.675,33.365&#10;&#9;&#9;&#9;c-0.689,25.22-5.189,42.193-21.937,60.228c-3.555,4.468-7.478,8.624-11.722,12.427c-12.586,13.18-30.197,30.741-49.803,42.123&#10;&#9;&#9;&#9;c-21.585,12.533-45.59,17.574-61.074,18.508c-15.484,0.933-22.449-2.241-29.915-9.428c-7.465-7.188-15.432-18.389-20.181-40.623&#10;&#9;&#9;&#9;c-4.562-21.359-6.155-52.894-6.834-71.616c-0.796-5.588-1.138-11.315-0.979-17.147c0.265-9.693,1.885-19.029,4.671-27.836&#10;&#9;&#9;&#9;H1169.332z" transform="matrix(1, 0, 0, 1, 0, 0)"/><path fill-rule="evenodd" clip-rule="evenodd" fill="#F9A348" d="M1222.285,541.833c6.626,43.787-15.853,85.258-52.953,104.779&#10;&#9;&#9;&#9;l-34.095-190.062C1178.904,462.211,1215.368,496.126,1222.285,541.833z" transform="matrix(1, 0, 0, 1, 0, 0)"/><path fill-rule="evenodd" clip-rule="evenodd" fill="#303B47" d="M991.619,699.171L991.619,699.171&#10;&#9;&#9;&#9;c3.354,0.091,6.022,2.91,5.932,6.264l-0.233,8.536c-0.092,3.354-2.91,6.023-6.265,5.932l0,0c-3.354-0.092-6.022-2.91-5.931-6.265&#10;&#9;&#9;&#9;l0.232-8.536C985.446,701.747,988.264,699.079,991.619,699.171z" transform="matrix(1, 0, 0, 1, 0, 0)"/><path fill-rule="evenodd" clip-rule="evenodd" fill="#303B47" d="M1072.922,701.391L1072.922,701.391&#10;&#9;&#9;&#9;c3.354,0.092,6.022,2.91,5.932,6.265l-0.233,8.536c-0.092,3.354-2.91,6.022-6.265,5.932l0,0c-3.354-0.092-6.022-2.91-5.931-6.265&#10;&#9;&#9;&#9;l0.232-8.536C1066.75,703.968,1069.568,701.299,1072.922,701.391z" transform="matrix(1, 0, 0, 1, 0, 0)"/><path fill-rule="evenodd" clip-rule="evenodd" fill="#F48E27" d="M1169.332,646.612c-22.73-126.708-34.095-190.062-34.095-190.062&#10;&#9;&#9;&#9;C1164.04,515.506,1175.846,581.321,1169.332,646.612z" transform="matrix(1, 0, 0, 1, 0, 0)"/><path fill-rule="evenodd" clip-rule="evenodd" fill="#303B47" d="M1034.538,744.391h33.188c2.578,0,4.688,2.108,4.688,4.687v0.001&#10;&#9;&#9;&#9;c0,2.578-2.109,4.688-4.688,4.688h-33.188c-2.578,0-4.688-2.109-4.688-4.688v-0.001&#10;&#9;&#9;&#9;C1029.85,746.499,1031.959,744.391,1034.538,744.391z" transform="matrix(1, 0, 0, 1, 0, 0)"/><path fill-rule="evenodd" clip-rule="evenodd" fill="#303B47" d="M995.913,744.391h24c2.578,0,4.688,2.109,4.688,4.687v0.001&#10;&#9;&#9;&#9;c0,2.577-2.109,4.688-4.688,4.688h-24c-2.578,0-4.688-2.109-4.688-4.688v-0.001C991.225,746.499,993.334,744.391,995.913,744.391z&#10;&#9;&#9;&#9;" transform="matrix(1, 0, 0, 1, 0, 0)"/><path fill-rule="evenodd" clip-rule="evenodd" fill="#F5C87A" d="M1012.225,757.327h29.625c2.062,0,3.75,1.688,3.75,3.75l0,0&#10;&#9;&#9;&#9;c0,2.062-1.688,3.75-3.75,3.75h-29.625c-2.062,0-3.75-1.688-3.75-3.75l0,0C1008.475,759.015,1010.163,757.327,1012.225,757.327z" transform="matrix(1, 0, 0, 1, 0, 0)"/><path fill-rule="evenodd" clip-rule="evenodd" fill="#303B47" d="M1169.332,646.612h-46.335h-0.006h-0.018h-0.03h-0.041h-0.054&#10;&#9;&#9;&#9;h-0.031h-0.034h-0.078h-0.089h-0.101h-0.113h-0.125h-0.137h-0.017h-0.133h-0.16h-0.173h-0.185h-0.017h-0.18h-0.208h-0.221h-0.03&#10;&#9;&#9;&#9;h-0.201h-0.244h-0.167h-0.089h-0.269h-0.228h-0.052h-0.291h-0.215h-0.089h-0.315h-0.126h-0.201h-0.302h-0.038h-0.351h-0.088&#10;&#9;&#9;&#9;h-0.275h-0.173h-0.202h-0.22h-0.167h-0.228h-0.171h-0.196h-0.215h-0.125h-0.298h-0.016h-0.285h-0.133h-0.126h-0.23h-0.09h-0.114&#10;&#9;&#9;&#9;h-0.177h-0.149h-0.018h-0.105h-0.095h-0.068h-0.041h-0.014h-15.001c2.975,6.742,8.373,12.016,15.001,14.871v86.219&#10;&#9;&#9;&#9;c0.283,5.652-1.592,13.776-5.625,24.375c3.492,4.66,5.274,6.784,5.35,6.372c35.36-24.125,55.327-46.999,59.9-68.623&#10;&#9;&#9;&#9;C1176.592,688.723,1175.255,667.143,1169.332,646.612z" transform="matrix(1, 0, 0, 1, 0, 0)"/><path fill-rule="evenodd" clip-rule="evenodd" fill="#F48E27" d="M1146.337,678.011L1146.337,678.011&#10;&#9;&#9;&#9;c10.509,0.287,18.872,9.119,18.585,19.627l-0.633,23.173c-0.287,10.509-9.119,18.871-19.627,18.584h-0.002&#10;&#9;&#9;&#9;c-10.508-0.286-18.87-9.119-18.584-19.627l0.634-23.173C1126.997,686.087,1135.83,677.724,1146.337,678.011z" transform="matrix(1, 0, 0, 1, 0, 0)"/><path fill-rule="evenodd" clip-rule="evenodd" fill="#303B47" d="M1111.402,780.437c-0.997,0.832-1.607,1.338-1.832,1.52&#10;&#9;&#9;&#9;c-0.019,0.136-1.703-1.918-5.055-6.162c0,0,0.532-0.593,1.597-1.779C1109.638,778.296,1111.402,780.437,1111.402,780.437z" transform="matrix(1, 0, 0, 1, 0, 0)"/><path fill-rule="evenodd" clip-rule="evenodd" fill="#303B47" d="M1101.342,788.348c1.639-1.201,3.251-2.424,4.835-3.668&#10;&#9;&#9;&#9;c-1.968-2.443-3.74-4.701-5.318-6.776c-2.656,2.031-3.984,3.047-3.984,3.047C1099.853,785.882,1101.342,788.348,1101.342,788.348z&#10;&#9;&#9;&#9;" transform="matrix(1, 0, 0, 1, 0, 0)"/><path fill-rule="evenodd" clip-rule="evenodd" fill="#303B47" d="M1169.332,646.612c28.71-15.102,48.445-43.045,53.078-75.152&#10;&#9;&#9;&#9;s-6.398-64.49-29.669-87.093c12.456,29.219,19.864,59.861,22.223,91.927c-15.953-4.476-33.077,0.112-44.656,11.965&#10;&#9;&#9;&#9;C1171.592,607.704,1171.266,627.222,1169.332,646.612z" transform="matrix(1, 0, 0, 1, 0, 0)"/><path fill-rule="evenodd" clip-rule="evenodd" fill="#F47C48" d="M1022.717,697.333L1022.717,697.333&#10;&#9;&#9;&#9;c-8.482,0-15.423,6.941-15.423,15.423v22.422c0,8.482,6.94,15.423,15.423,15.423l0,0c8.482,0,15.423-6.94,15.423-15.423v-22.422&#10;&#9;&#9;&#9;C1038.14,704.273,1031.2,697.333,1022.717,697.333z" transform="matrix(1, 0, 0, 1, 0, 0)"/><path fill-rule="evenodd" clip-rule="evenodd" fill="#E688B8" d="M1066.081,212.75c-0.207-2.192,1.402-4.137,3.594-4.344&#10;&#9;&#9;&#9;c2.191-0.207,4.137,1.402,4.344,3.594c0.345,3.609,0.688,7.219,1.029,10.829c1.835-0.064,3.624-0.055,5.258,0.052&#10;&#9;&#9;&#9;c5.984,0.391,9.88,2.084,9.031,3.916s-6.442,3.8-9.334,6.111c-2.888,2.309-3.078,4.958-3.312,7.145&#10;&#9;&#9;&#9;c0.608,6.322,1.27,11.379,4.995,13.46c2.299,1.285,5.857,1.932,10.545,2.031c5.058,0.106,11.347-0.462,18.726-1.596&#10;&#9;&#9;&#9;c5.249-0.807,10.689-1.831,16.334-2.894c11.455-2.156,23.727-4.466,34.9-5.225c8.811-0.599,16.973-0.235,24.282,2.72&#10;&#9;&#9;&#9;c7.528,3.044,13.92,8.692,18.812,18.585c8.743,17.68,12.59,49.27,15.18,70.542l0.824,6.707&#10;&#9;&#9;&#9;c2.384,19.313,3.412,27.646-1.394,33.149c-4.688,5.368-13.492,5.928-25.467,6.689l-2.658,0.171&#10;&#9;&#9;&#9;c-5.428,0.356-11.805,0.851-18.17,1.384c-1.868,0.157-3.694,0.313-5.461,0.467c0.696,7.121,1.442,15.726,2.108,23.413&#10;&#9;&#9;&#9;c0.553,6.379,0.792,9.262,0.928,10.767l0.171,1.881c1.096,12.064,1.449,15.964-3.029,19.119c-1.983,1.397-4.752,2.143-8.586,2.579&#10;&#9;&#9;&#9;c-3.219,0.365-7.459,0.542-12.867,0.766l-0.755,0.031c-10.414,0.431-24.932,1.033-35.464,1.531l-0.884,0.042&#10;&#9;&#9;&#9;c-11.117,0.529-17.499,0.833-21.663-3.245c-3.987-3.904-4.149-10.121-4.56-25.979l-0.065-2.521&#10;&#9;&#9;&#9;c-0.215-8.136-0.544-19.018-0.887-29.907c-0.34-10.797-0.692-21.532-0.957-29.562c-0.262-7.916-0.439-13.168-0.801-16.7&#10;&#9;&#9;&#9;c-0.28-2.73-0.574-4.021-1.027-4.551l-0.014-0.016c-0.176-0.181-0.499-0.255-0.854-0.246c-0.487,0.012-0.945,0.167-1.238,0.418&#10;&#9;&#9;&#9;l-0.027,0.025c-0.172,0.185-0.27,0.874-0.354,3.62c-0.125,4.031,0.084,10.978,0.473,23.23l0.085,2.684&#10;&#9;&#9;&#9;c0.801,25.205,2.187,68.864,1.884,92.02c-0.163,12.465-0.854,19.288-2.508,23.328c-2.248,5.494-5.491,6.477-10.43,7.094&#10;&#9;&#9;&#9;c-4.05,0.506-9.547,0.741-15.125-2.172c-5.433-2.837-10.64-8.568-13.938-19.796c-3.04-10.349-4.52-25.674-5.211-41.422&#10;&#9;&#9;&#9;c-0.681-15.498-0.602-31.534-0.508-43.484l0.048-5.757c0.161-18.612,0.216-25.014-1.235-28.384&#10;&#9;&#9;&#9;c-0.58-1.348-1.48-2.243-2.586-2.844c-1.367-0.743-3.131-1.151-5.07-1.406c-1.735-0.228-3.527-0.327-4.805,0.328&#10;&#9;&#9;&#9;c-1.261,0.646-2.41,2.235-3.242,5.562c-2.105,8.423-1.486,25.543-0.607,49.849l0.499,13.944&#10;&#9;&#9;&#9;c0.845,23.756,1.815,51.021,2.842,68.646c0.568,9.758,1.136,16.273,2.836,20.438c1.376,3.37,3.811,5.223,8.273,6.422&#10;&#9;&#9;&#9;c10.28,2.763,29.702,2.331,46.404,1.959l6.879-0.146c6.032-0.122,11.513-0.233,16.33-0.541c0.479-7.113,1.324-13.629,2.777-18.647&#10;&#9;&#9;&#9;c1.975-6.822,5.078-11.069,8.469-13.624c5.162-3.888,10.863-3.833,14.594-2.876c3.86,0.989,6.042,2.913,7.188,5.969&#10;&#9;&#9;&#9;c0.917,2.446,0.916,5.344,0.547,9.031c-0.341,3.409-0.997,7.655-2.641,11.766c-1.75,4.376-4.588,8.538-9.266,11.375&#10;&#9;&#9;&#9;c-3.713,2.252-8.426,3.526-14.064,4.279c-0.325,9.125-0.201,18.876-0.095,27.309c0.033,2.562,0.064,5.007,0.081,7.365&#10;&#9;&#9;&#9;c0.066,9.337-0.124,15.986-2.797,21.109c-2.901,5.561-8.108,8.646-17.844,10.109c-5.412,0.813-12.429,1.139-20.094,1.158&#10;&#9;&#9;&#9;c0.14,14.928-0.188,30.6-0.423,41.844l-0.093,4.491c-0.294,14.695-5.642,14.695-3.859,14.695c2.209,0,4,1.791,4,4s-1.791,4-4,4&#10;&#9;&#9;&#9;c-2.283,0-4.565-0.001-4.109-22.852l0.093-4.491c0.234-11.225,0.562-26.913,0.416-41.766c-1.915-0.039-3.85-0.093-5.79-0.158&#10;&#9;&#9;&#9;c-6.902-0.232-13.786-0.601-20.126-0.998l-0.055,1.352c-0.276,6.863-0.535,13.275-0.944,17.99&#10;&#9;&#9;&#9;c-0.696,8.004-1.924,12.845-4.531,16.109c-2.884,3.609-6.751,4.829-12.625,5.516c-5.065,0.592-12.007,0.812-19.034,0.645&#10;&#9;&#9;&#9;c-6.678-0.159-13.424-0.672-18.7-1.551c-5.983-0.997-10.35-2.505-13.703-5.547c-3.404-3.088-5.416-7.413-6.578-13.953&#10;&#9;&#9;&#9;c-1.697-9.547-1.646-24.438-1.577-44.689c0.007-2.049,0.015-4.325,0.015-13.498c0-19.619-0.219-40.527-0.435-61.259&#10;&#9;&#9;&#9;c-0.109-10.463-0.219-20.884-0.3-30.834c-0.126-15.279-0.188-29.455,0.344-41.375c0.548-12.268,1.733-22.334,4.125-29.109&#10;&#9;&#9;&#9;c0.538-1.524,1.156-2.921,1.839-4.198c2.53-4.729,5.821-7.375,9.275-8.627c0.127-0.057,0.257-0.107,0.391-0.151&#10;&#9;&#9;&#9;c3.631-1.203,7.302-0.837,10.415,0.261c0.885,0.312,1.759,0.706,2.596,1.153c3.69,1.974,6.107,4.651,7.672,10.609&#10;&#9;&#9;&#9;c1.297,4.94,1.988,12.449,2.438,24.641c0.437,11.858,0.656,28.415,0.75,45.938c0.094,17.448,0.062,35.834,0,51.469l-0.024,5.752&#10;&#9;&#9;&#9;c-0.12,27.706-0.199,45.912,1.931,55.217c0.862,3.768,2.078,5.691,4.547,6.703c3.292,1.349,8.977,1.794,17.969,2.453&#10;&#9;&#9;&#9;c2.048,0.15,4.257,0.311,6.587,0.474c0.492-10.406,1.227-20.861,2.851-28.333c1.769-8.134,4.655-13.05,8.031-15.969&#10;&#9;&#9;&#9;c3.702-3.2,7.778-3.959,11.656-3.797c4.09,0.17,8.022,1.295,11.359,5.894c2.783,3.836,4.992,10.268,6.203,21.177&#10;&#9;&#9;&#9;c0.7,6.312,1.089,14.266,1.281,22.801c7.298-0.019,13.945-0.325,19.031-1.09c6.89-1.036,10.371-2.827,11.969-5.891&#10;&#9;&#9;&#9;c1.827-3.502,1.949-9.229,1.891-17.391c-0.016-2.217-0.048-4.698-0.08-7.304c-0.104-8.213-0.224-17.641,0.069-26.67&#10;&#9;&#9;&#9;c-4.779,0.283-10.051,0.39-15.784,0.506l-6.879,0.146c-17.252,0.385-37.314,0.831-48.623-2.209&#10;&#9;&#9;&#9;c-7.162-1.925-11.166-5.136-13.617-11.141c-2.128-5.21-2.779-12.384-3.398-23c-1.013-17.379-1.99-44.858-2.842-68.802&#10;&#9;&#9;&#9;l-0.499-13.944c-0.904-24.993-1.54-42.599,0.826-52.067c1.48-5.922,4.176-9.083,7.367-10.719c3.175-1.626,6.447-1.537,9.461-1.141&#10;&#9;&#9;&#9;c2.81,0.369,5.484,1.025,7.852,2.312c2.629,1.43,4.761,3.535,6.117,6.688c2.092,4.857,2.032,11.702,1.86,31.602l-0.048,5.757&#10;&#9;&#9;&#9;c-0.093,11.799-0.171,27.639,0.508,43.078c0.667,15.188,2.063,29.865,4.898,39.516c2.576,8.771,6.246,13.041,9.969,14.985&#10;&#9;&#9;&#9;c3.577,1.868,7.52,1.665,10.469,1.296c2.061-0.258,3.382-0.588,4.023-2.156c1.236-3.021,1.765-9.012,1.914-20.422&#10;&#9;&#9;&#9;c0.3-22.912-1.085-66.508-1.884-91.676l-0.085-2.684c-0.393-12.402-0.605-19.441-0.473-23.699c0.171-5.496,1.01-7.426,2.77-9.128&#10;&#9;&#9;&#9;l0.016-0.016c0.121-0.118,0.248-0.233,0.378-0.344c1.646-1.41,3.946-2.267,6.238-2.325c2.424-0.061,4.905,0.735,6.76,2.652&#10;&#9;&#9;&#9;c0.127,0.131,0.246,0.262,0.357,0.392c1.608,1.876,2.441,4.414,2.903,8.925c0.38,3.711,0.562,9.116,0.832,17.262&#10;&#9;&#9;&#9;c0.265,8.031,0.617,18.766,0.957,29.562c0.337,10.705,0.664,21.542,0.887,29.969l0.065,2.521&#10;&#9;&#9;&#9;c0.35,13.518,0.487,18.817,2.185,20.479c1.666,1.631,6.781,1.387,15.694,0.963l0.884-0.042&#10;&#9;&#9;&#9;c10.094-0.478,24.904-1.091,35.526-1.531l0.755-0.031c5.154-0.213,9.196-0.381,12.305-0.734c2.494-0.283,4.102-0.632,4.867-1.172&#10;&#9;&#9;&#9;c0.717-0.505,0.466-3.281-0.314-11.869l-0.17-1.897c-0.698-7.761-0.831-9.291-0.96-10.782c-0.67-7.73-1.42-16.381-2.101-23.383&#10;&#9;&#9;&#9;c-2.312,0.215-4.422,0.418-6.268,0.603l-1.939,0.196c-10.026,1.016-14.596,1.479-17.873-2.196&#10;&#9;&#9;&#9;c-1.693-1.898-2.402-4.611-2.641-7.297c-0.201-2.272-0.085-4.428,0.016-5.875c0.18-2.572,0.379-3.953,2.391-5.422&#10;&#9;&#9;&#9;c1.391-1.015,2.883-1.238,5.688-1.531c2.546-0.266,6.397-0.633,9.902-0.904c2.598-0.202,5.213-0.366,7.332-0.424&#10;&#9;&#9;&#9;c3.703-0.103,5.913,0.128,7.93,3.25c1.305,2.02,1.919,5.147,2.586,10.906l0.003,0.027c1.876-0.166,3.766-0.329,5.64-0.486&#10;&#9;&#9;&#9;c6.024-0.505,12.388-0.995,18.326-1.384l2.658-0.171c10.067-0.64,17.471-1.111,19.967-3.97c2.436-2.79,1.538-10.065-0.544-26.931&#10;&#9;&#9;&#9;l-0.824-6.738c-2.524-20.73-6.273-51.517-14.398-67.948c-3.92-7.927-8.874-12.385-14.625-14.71&#10;&#9;&#9;&#9;c-5.972-2.415-13.03-2.685-20.782-2.158c-10.748,0.73-22.755,2.99-33.963,5.1c-5.936,1.117-11.656,2.193-16.615,2.956&#10;&#9;&#9;&#9;c-7.715,1.186-14.442,1.777-20.069,1.659c-5.996-0.127-10.793-1.092-14.264-3.031c-10.52-5.877-6.314-15.191-10.835-23.569&#10;&#9;&#9;&#9;c-1.043-1.934-2.193-3.27-4.11-3.967s-4.603-0.755-6.277-1.462c-1.675-0.708-2.341-2.063-1.908-3.366s1.964-2.553,6.767-3.634&#10;&#9;&#9;&#9;c1.591-0.358,3.542-0.698,5.657-0.978C1066.762,219.921,1066.422,216.335,1066.081,212.75L1066.081,212.75z M1153.129,379.628&#10;&#9;&#9;&#9;c1.941-0.194,4.033-0.397,6.217-0.604c-0.511-4.39-0.863-6.597-1.35-7.349c-0.22-0.34-0.195,0.384-0.992,0.406&#10;&#9;&#9;&#9;c-1.692,0.047-4.236,0.213-6.957,0.424c-3.728,0.289-7.402,0.634-9.684,0.873c-0.413,0.043-0.721,0.047-0.954,0.038&#10;&#9;&#9;&#9;c-0.076,1.2-0.139,2.764-0.015,4.165c0.105,1.188,0.303,2.258,0.672,2.672c0.57,0.64,3.874,0.305,11.123-0.429L1153.129,379.628&#10;&#9;&#9;&#9;L1153.129,379.628z M1138.551,373.409c-0.43,0.313-0.202,0.162,0.13-0.053C1138.634,373.362,1138.593,373.378,1138.551,373.409&#10;&#9;&#9;&#9;L1138.551,373.409z M1106.639,506.433c3.917-0.616,7.121-1.547,9.505-2.992c2.947-1.788,4.798-4.564,5.984-7.531&#10;&#9;&#9;&#9;c1.293-3.232,1.825-6.737,2.109-9.578c0.256-2.562,0.317-4.415-0.078-5.469c-0.166-0.443-0.673-0.771-1.688-1.031&#10;&#9;&#9;&#9;c-2-0.513-5.055-0.544-7.812,1.533c-2.162,1.628-4.2,4.542-5.626,9.467C1107.834,494.976,1107.091,500.402,1106.639,506.433&#10;&#9;&#9;&#9;L1106.639,506.433z M1051.941,573.378c1.813,0.061,3.622,0.111,5.411,0.149c-0.191-8.194-0.569-15.804-1.239-21.845&#10;&#9;&#9;&#9;c-1.039-9.364-2.706-14.57-4.734-17.364c-1.475-2.032-3.293-2.533-5.203-2.612c-2.122-0.088-4.298,0.279-6.125,1.859&#10;&#9;&#9;&#9;c-2.155,1.862-4.081,5.385-5.438,11.625c-1.527,7.023-2.229,17.103-2.704,27.18&#10;&#9;&#9;&#9;C1038.323,572.776,1045.221,573.152,1051.941,573.378L1051.941,573.378z M1023.605,579.819c-2.418-0.168-4.699-0.334-6.805-0.488&#10;&#9;&#9;&#9;c-9.758-0.716-15.949-1.208-20.438-3.047c-5.312-2.176-7.784-5.689-9.297-12.297c-2.321-10.144-2.241-28.736-2.118-57.029&#10;&#9;&#9;&#9;l0.024-5.752c0.062-15.616,0.094-33.979,0-51.406c-0.093-17.352-0.312-33.797-0.75-45.688c-0.426-11.558-1.048-18.55-2.188-22.891&#10;&#9;&#9;&#9;c-0.872-3.323-2.019-4.708-3.703-5.609c-0.436-0.233-0.938-0.455-1.502-0.654c-1.627-0.574-3.496-0.782-5.259-0.198&#10;&#9;&#9;&#9;c-0.083,0.027-0.166,0.051-0.25,0.073c-1.713,0.648-3.422,2.128-4.885,4.862c-0.465,0.871-0.914,1.9-1.339,3.104&#10;&#9;&#9;&#9;c-2.108,5.974-3.173,15.284-3.688,26.797c-0.53,11.861-0.468,25.874-0.344,40.969c0.081,9.95,0.19,20.372,0.3,30.834&#10;&#9;&#9;&#9;c0.231,22.221,0.466,44.632,0.466,61.322l-0.046,13.498c-0.067,19.772-0.117,34.311,1.483,43.314&#10;&#9;&#9;&#9;c0.837,4.709,2.076,7.635,4.047,9.422c2.021,1.832,5.155,2.825,9.672,3.578c4.958,0.826,11.299,1.308,17.575,1.457&#10;&#9;&#9;&#9;c6.598,0.157,13.139-0.053,17.94-0.613c3.75-0.438,6.071-1.031,7.281-2.547c1.485-1.86,2.259-5.457,2.812-11.828&#10;&#9;&#9;&#9;c0.438-5.038,0.683-11.113,0.944-17.615L1023.605,579.819z" transform="matrix(1, 0, 0, 1, 0, 0)"/><path fill-rule="evenodd" clip-rule="evenodd" fill="#DD71A2" d="M1085.827,223.753c2.65,0.754,4.054,1.871,3.51,3.043&#10;&#9;&#9;&#9;c-0.849,1.832-6.442,3.8-9.334,6.111c-2.888,2.309-3.078,4.958-3.312,7.145c0.098,1.007,0.195,1.983,0.308,2.919h-7.966&#10;&#9;&#9;&#9;c-0.404-2.033-0.984-4.072-2.057-6.059c-1.043-1.934-2.193-3.27-4.11-3.967s-4.603-0.755-6.277-1.462&#10;&#9;&#9;&#9;c-1.675-0.708-2.341-2.063-1.908-3.366s1.964-2.553,6.767-3.634c1.147-0.258,2.482-0.507,3.931-0.731H1085.827z" transform="matrix(1, 0, 0, 1, 0, 0)"/><path fill-rule="evenodd" clip-rule="evenodd" fill="#E688B8" d="M1102.725,130.479c51.047,0.427,93.827,39.324,98.975,90.229&#10;&#9;&#9;&#9;&#9;c0.113,1.339-0.332,2.667-1.234,3.668c-0.798,0.884-1.887,1.44-3.056,1.575l-0.614,0.032l-86.253,4.458&#10;&#9;&#9;&#9;&#9;c-3.372,0.082-6.402-2.045-7.473-5.244c-0.832,3.338-3.721,5.761-7.153,6l-89.13,4.607l-0.614,0.032&#10;&#9;&#9;&#9;&#9;c-1.177-0.013-2.317-0.454-3.202-1.251c-0.962-0.867-1.535-2.08-1.602-3.365c-0.21-52.118,39.703-95.905,91.784-100.372&#10;&#9;&#9;&#9;&#9;c2.409,0.685,4.409,2.488,5.295,4.933C1098.98,133.395,1100.595,131.463,1102.725,130.479z" transform="matrix(1, 0, 0, 1, 0, 0)"/><path fill-rule="evenodd" clip-rule="evenodd" fill="#DD71A2" d="M1102.725,130.479c51.047,0.427,93.827,39.324,98.975,90.229&#10;&#9;&#9;&#9;&#9;c0.113,1.339-0.332,2.667-1.234,3.668c-0.798,0.884-1.887,1.44-3.056,1.575l-0.614,0.032l-86.253,4.458&#10;&#9;&#9;&#9;&#9;c-3.372,0.082-6.402-2.045-7.473-5.244l-4.622-89.417C1098.98,133.395,1100.595,131.463,1102.725,130.479z" transform="matrix(1, 0, 0, 1, 0, 0)"/><path fill-rule="evenodd" clip-rule="evenodd" fill="#EAA6CA" d="M1041.737,176.648l16.454-0.85&#10;&#9;&#9;&#9;&#9;c2.801-0.145,5.211,2.029,5.355,4.829v0c0.146,2.801-2.028,5.211-4.829,5.356l-16.454,0.851c-2.801,0.145-5.211-2.028-5.355-4.83&#10;&#9;&#9;&#9;&#9;l0,0C1036.762,179.203,1038.936,176.793,1041.737,176.648z" transform="matrix(1, 0, 0, 1, 0, 0)"/><path fill-rule="evenodd" clip-rule="evenodd" fill="#EAA6CA" d="M1082.969,151.603l6.426-0.332&#10;&#9;&#9;&#9;&#9;c2.801-0.145,5.211,2.03,5.355,4.83l0,0c0.145,2.799-2.029,5.211-4.829,5.356l-6.426,0.332c-2.799,0.145-5.211-2.028-5.355-4.829&#10;&#9;&#9;&#9;&#9;v0C1077.996,154.158,1080.168,151.748,1082.969,151.603z" transform="matrix(1, 0, 0, 1, 0, 0)"/><path fill-rule="evenodd" clip-rule="evenodd" fill="#EAA6CA" d="M1015.834,212.554l16.454-0.85&#10;&#9;&#9;&#9;&#9;c2.801-0.145,5.211,2.028,5.356,4.829v0c0.145,2.8-2.029,5.211-4.83,5.356l-16.454,0.85c-2.801,0.145-5.211-2.028-5.355-4.829v0&#10;&#9;&#9;&#9;&#9;C1010.86,215.108,1013.034,212.699,1015.834,212.554z" transform="matrix(1, 0, 0, 1, 0, 0)"/><path fill-rule="evenodd" clip-rule="evenodd" fill="#EAA6CA" d="M1072.971,201.352l6.426-0.332&#10;&#9;&#9;&#9;&#9;c2.801-0.145,5.211,2.03,5.355,4.83v0c0.146,2.799-2.029,5.211-4.829,5.355l-6.425,0.333c-2.8,0.145-5.211-2.028-5.356-4.83v0&#10;&#9;&#9;&#9;&#9;C1067.998,203.907,1070.17,201.497,1072.971,201.352z" transform="matrix(1, 0, 0, 1, 0, 0)"/><path fill-rule="evenodd" clip-rule="evenodd" fill="#E688B8" d="M1116.37,174.1l16.454-0.85&#10;&#9;&#9;&#9;&#9;c2.801-0.145,5.211,2.029,5.355,4.829l0.001,0c0.145,2.801-2.029,5.211-4.83,5.356l-16.454,0.851&#10;&#9;&#9;&#9;&#9;c-2.801,0.145-5.211-2.028-5.355-4.83l0,0C1111.395,176.655,1113.569,174.245,1116.37,174.1z" transform="matrix(1, 0, 0, 1, 0, 0)"/><path fill-rule="evenodd" clip-rule="evenodd" fill="#E688B8" d="M1169.581,196.882l6.425-0.333&#10;&#9;&#9;&#9;&#9;c2.801-0.145,5.211,2.03,5.355,4.83v0c0.146,2.799-2.029,5.211-4.829,5.355l-6.426,0.333c-2.799,0.145-5.211-2.029-5.355-4.83&#10;&#9;&#9;&#9;&#9;l0,0C1164.606,199.437,1166.779,197.026,1169.581,196.882z" transform="matrix(1, 0, 0, 1, 0, 0)"/><path fill-rule="evenodd" clip-rule="evenodd" fill="#E688B8" d="M1141.771,151.313l16.454-0.851&#10;&#9;&#9;&#9;&#9;c2.801-0.145,5.211,2.029,5.355,4.829v0c0.146,2.801-2.028,5.211-4.829,5.356l-16.454,0.851&#10;&#9;&#9;&#9;&#9;c-2.801,0.145-5.211-2.028-5.356-4.829v0C1136.796,153.868,1138.969,151.458,1141.771,151.313z" transform="matrix(1, 0, 0, 1, 0, 0)"/><path fill-rule="evenodd" clip-rule="evenodd" fill="#E688B8" d="M1123.023,213.167l6.426-0.332&#10;&#9;&#9;&#9;&#9;c2.801-0.145,5.211,2.03,5.356,4.829v0.001c0.145,2.799-2.03,5.211-4.83,5.355l-6.425,0.333c-2.8,0.145-5.212-2.029-5.356-4.83&#10;&#9;&#9;&#9;&#9;l0,0C1118.049,215.722,1120.222,213.312,1123.023,213.167z" transform="matrix(1, 0, 0, 1, 0, 0)"/><path d="M 1164.9000244140625 89.15399932861328 L 1176.5400390625 98.75399780273438 L 1156.0670166015625 121.49400329589844 L 1198.0550537109375 91.89199829101562 L 1186.072998046875 86.6449966430664 L 1212.4930419921875 72.15499877929688 L 1194.4339599609375 56.04499816894531 Z" fill-rule="evenodd" clip-rule="evenodd" fill="#FAF074" transform="matrix(1, 0, 0, 1, 0, 0)"/><path d="M 986.0360107421875 134.91600036621094 L 975.9409790039062 146.1280059814453 L 999.5430297851562 165.60000610351562 L 953.6480102539062 142.51600646972656 L 964.7239990234375 135.5590057373047 L 936.4559936523438 125.125 L 951.9400024414062 106.52799987792969 Z" fill-rule="evenodd" clip-rule="evenodd" fill="#FAF074" transform="matrix(1, 0, 0, 1, 0, 0)"/><path fill-rule="evenodd" clip-rule="evenodd" fill="#51B8E2" d="M245.528,631.48c3.209,1.142,6.246,2.629,9.069,4.414&#10;&#9;&#9;&#9;l9.063-8.035c2.3-2.04,5.852-1.827,7.891,0.474l9.504,10.72c2.04,2.3,1.826,5.851-0.475,7.891l-9.063,8.037&#10;&#9;&#9;&#9;c1.435,3.016,2.548,6.209,3.298,9.531l12.087,0.727c3.069,0.185,5.429,2.846,5.245,5.915l-0.859,14.3&#10;&#9;&#9;&#9;c-0.185,3.069-2.846,5.43-5.915,5.245l-12.087-0.727c-1.142,3.209-2.629,6.246-4.415,9.068l8.036,9.063&#10;&#9;&#9;&#9;c2.04,2.301,1.826,5.852-0.474,7.892l-10.719,9.504c-2.3,2.04-5.851,1.826-7.891-0.475l-8.036-9.063&#10;&#9;&#9;&#9;c-3.017,1.435-6.21,2.548-9.532,3.298l-0.726,12.087c-0.185,3.069-2.846,5.43-5.916,5.245l-14.299-0.859&#10;&#9;&#9;&#9;c-3.069-0.185-5.429-2.846-5.245-5.915l0.727-12.087c-3.209-1.142-6.246-2.629-9.069-4.415l-9.063,8.036&#10;&#9;&#9;&#9;c-2.301,2.039-5.852,1.826-7.892-0.475l-9.503-10.719c-2.04-2.301-1.827-5.852,0.474-7.892l9.064-8.036&#10;&#9;&#9;&#9;c-1.435-3.017-2.548-6.21-3.298-9.532l-12.087-0.726c-3.07-0.185-5.429-2.846-5.245-5.916l0.859-14.299&#10;&#9;&#9;&#9;c0.185-3.069,2.847-5.43,5.916-5.245l12.088,0.726c1.142-3.208,2.629-6.244,4.415-9.067l-8.037-9.064&#10;&#9;&#9;&#9;c-2.04-2.301-1.826-5.852,0.474-7.892l10.719-9.503c2.301-2.04,5.852-1.827,7.892,0.474l8.036,9.064&#10;&#9;&#9;&#9;c3.017-1.436,6.209-2.549,9.532-3.298l0.727-12.088c0.185-3.069,2.846-5.429,5.915-5.245l14.3,0.859&#10;&#9;&#9;&#9;c3.069,0.185,5.429,2.847,5.245,5.916L245.528,631.48z" transform="matrix(1, 0, 0, 1, 0, 0)"/><path d="M 254.255003 674.604004 A 24.093 24.093 0 0 1 230.162003 698.697004 A 24.093 24.093 0 0 1 206.069002 674.604004 A 24.093 24.093 0 0 1 230.162003 650.511003 A 24.093 24.093 0 0 1 254.255003 674.604004 Z" fill-rule="evenodd" clip-rule="evenodd" fill="#F5B833" transform="matrix(1, 0, 0, 1, 0, 0)"/><path d="M 244.923002 674.604004 A 14.761 14.761 0 0 1 230.162003 689.365004 A 14.761 14.761 0 0 1 215.401003 674.604004 A 14.761 14.761 0 0 1 230.162003 659.843004 A 14.761 14.761 0 0 1 244.923002 674.604004 Z" fill-rule="evenodd" clip-rule="evenodd" fill="#F4F7F9" transform="matrix(1, 0, 0, 1, 0, 0)"/><path fill-rule="evenodd" clip-rule="evenodd" fill="#D93446" d="M221.683,833.947h118.5c19.8,0,36,16.199,36,36V983.2h-190.5&#10;&#9;&#9;&#9;V869.947C185.683,850.146,201.883,833.947,221.683,833.947z" transform="matrix(1, 0, 0, 1, 0, 0)"/><path fill-rule="evenodd" clip-rule="evenodd" fill="#0C171F" d="M339.215,866.358H223.719c-14.542,0-26.439-11.898-26.439-26.44&#10;&#9;&#9;&#9;V643.013h141.936V866.358z" transform="matrix(1, 0, 0, 1, 0, 0)"/><path fill-rule="evenodd" clip-rule="evenodd" fill="#F7C46C" d="M300.59,765.312h-50.642v86.462&#10;&#9;&#9;&#9;c0,13.927,11.395,25.321,25.321,25.321l0,0c13.927,0,25.321-11.395,25.321-25.321V765.312z" transform="matrix(1, 0, 0, 1, 0, 0)"/><path fill-rule="evenodd" clip-rule="evenodd" fill="#F39E39" d="M300.59,750.521h-50.642v72.882&#10;&#9;&#9;&#9;c5.519-2.076,11.106-4.642,16.509-7.779c12.834-7.451,24.629-18.117,34.133-27.629V750.521z" transform="matrix(1, 0, 0, 1, 0, 0)"/><path fill-rule="evenodd" clip-rule="evenodd" fill="#EC495C" d="M221.116,833.947h103.873c19.8,0,36,16.199,36,36V983.2H185.116&#10;&#9;&#9;&#9;v-45.97c-5.882-6.227-9.559-15.083-9.559-24.911s3.677-18.685,9.559-24.911v-17.461&#10;&#9;&#9;&#9;C185.116,850.146,201.316,833.947,221.116,833.947z" transform="matrix(1, 0, 0, 1, 0, 0)"/><path fill-rule="evenodd" clip-rule="evenodd" fill="#F7C46C" d="M355.395,643.013c3.329,10.503,4.992,21.73,4.674,33.364&#10;&#9;&#9;&#9;c-0.688,25.221-5.189,42.194-21.936,60.228c-3.555,4.468-7.478,8.624-11.722,12.427c-12.586,13.18-30.197,30.741-49.803,42.124&#10;&#9;&#9;&#9;c-21.584,12.533-45.589,17.574-61.074,18.508c-15.485,0.933-22.449-2.242-29.915-9.429c-7.465-7.188-15.432-18.389-20.181-40.623&#10;&#9;&#9;&#9;c-4.563-21.358-6.156-52.893-6.834-71.615c-0.796-5.588-1.138-11.315-0.979-17.147c0.265-9.693,1.886-19.029,4.672-27.836H355.395&#10;&#9;&#9;&#9;z" transform="matrix(1, 0, 0, 1, 0, 0)"/><path fill-rule="evenodd" clip-rule="evenodd" fill="#303B47" d="M415.418,538.233c6.627,43.787-15.852,85.257-52.953,104.779&#10;&#9;&#9;&#9;L328.371,452.95C372.038,458.611,408.501,492.526,415.418,538.233z" transform="matrix(1, 0, 0, 1, 0, 0)"/><path fill-rule="evenodd" clip-rule="evenodd" fill="#FFFFFF" d="M239.066,751.914c-0.354,12.973-11.152,23.202-24.113,22.849&#10;&#9;&#9;&#9;c-12.996-0.355-23.22-11.158-22.866-24.132L239.066,751.914z" transform="matrix(1, 0, 0, 1, 0, 0)"/><path fill-rule="evenodd" clip-rule="evenodd" fill="#303B47" d="M177.682,695.57L177.682,695.57&#10;&#9;&#9;&#9;c3.354,0.092,6.023,2.91,5.931,6.265l-0.233,8.536c-0.092,3.354-2.91,6.022-6.264,5.932l0,0c-3.354-0.092-6.023-2.91-5.931-6.265&#10;&#9;&#9;&#9;l0.233-8.536C171.51,698.147,174.328,695.479,177.682,695.57z" transform="matrix(1, 0, 0, 1, 0, 0)"/><path fill-rule="evenodd" clip-rule="evenodd" fill="#303B47" d="M258.986,697.791L258.986,697.791&#10;&#9;&#9;&#9;c3.354,0.092,6.023,2.909,5.931,6.265l-0.233,8.536c-0.091,3.354-2.91,6.022-6.264,5.931l0,0c-3.354-0.092-6.022-2.91-5.931-6.264&#10;&#9;&#9;&#9;l0.233-8.537C252.813,700.367,255.631,697.699,258.986,697.791z" transform="matrix(1, 0, 0, 1, 0, 0)"/><path fill-rule="evenodd" clip-rule="evenodd" fill="#0C171F" d="M362.466,643.013c-22.73-126.709-34.095-190.063-34.095-190.063&#10;&#9;&#9;&#9;C357.174,511.905,368.981,577.721,362.466,643.013z" transform="matrix(1, 0, 0, 1, 0, 0)"/><path fill-rule="evenodd" clip-rule="evenodd" fill="#303B47" d="M248.657,673.912c-0.803,2.054-3.118,3.068-5.172,2.266&#10;&#9;&#9;&#9;c-2.054-0.802-3.068-3.118-2.266-5.171c1.502-3.812,4.09-6.967,7.322-9.166c3.245-2.208,7.128-3.462,11.208-3.462&#10;&#9;&#9;&#9;c4.081,0,7.964,1.254,11.208,3.462c3.232,2.199,5.82,5.354,7.323,9.166c0.803,2.053-0.212,4.369-2.266,5.171&#10;&#9;&#9;&#9;c-2.054,0.803-4.369-0.212-5.172-2.266c-0.896-2.271-2.445-4.157-4.385-5.478c-1.927-1.311-4.25-2.056-6.709-2.056&#10;&#9;&#9;&#9;c-2.458,0-4.782,0.745-6.708,2.056C251.103,669.755,249.553,671.641,248.657,673.912z" transform="matrix(1, 0, 0, 1, 0, 0)"/><path fill-rule="evenodd" clip-rule="evenodd" fill="#303B47" d="M164.936,673.912c-0.803,2.054-3.118,3.068-5.172,2.266&#10;&#9;&#9;&#9;c-2.054-0.802-3.068-3.118-2.266-5.171c1.503-3.812,4.09-6.967,7.323-9.166c3.244-2.208,7.127-3.462,11.208-3.462&#10;&#9;&#9;&#9;c4.081,0,7.964,1.254,11.208,3.462c3.232,2.199,5.82,5.354,7.323,9.166c0.802,2.053-0.212,4.369-2.266,5.171&#10;&#9;&#9;&#9;c-2.054,0.803-4.37-0.212-5.172-2.266c-0.896-2.271-2.445-4.157-4.385-5.478c-1.927-1.311-4.25-2.056-6.708-2.056&#10;&#9;&#9;&#9;c-2.458,0-4.782,0.745-6.709,2.056C167.381,669.755,165.832,671.641,164.936,673.912z" transform="matrix(1, 0, 0, 1, 0, 0)"/><path fill-rule="evenodd" clip-rule="evenodd" fill="#303B47" d="M315.965,643.013h46.5v200.095&#10;&#9;&#9;&#9;c0,12.788-10.462,23.251-23.25,23.251l0,0c-12.788,0-23.25-10.463-23.25-23.251V643.013z" transform="matrix(1, 0, 0, 1, 0, 0)"/><path fill-rule="evenodd" clip-rule="evenodd" fill="#F7C46C" d="M326.487,687.771h0.001c10.508,0.287,18.871,9.119,18.584,19.628&#10;&#9;&#9;&#9;l-0.633,23.172c-0.287,10.509-9.12,18.871-19.627,18.584h-0.001c-10.508-0.286-18.871-9.119-18.584-19.627l0.633-23.173&#10;&#9;&#9;&#9;C307.147,695.848,315.979,687.484,326.487,687.771z" transform="matrix(1, 0, 0, 1, 0, 0)"/><path fill-rule="evenodd" clip-rule="evenodd" fill="#303B47" d="M300.59,643.013h15.375v143.284c0,4.228-3.459,7.688-7.688,7.688&#10;&#9;&#9;&#9;l0,0c-4.229,0-7.688-3.46-7.688-7.688V643.013z" transform="matrix(1, 0, 0, 1, 0, 0)"/><path fill-rule="evenodd" clip-rule="evenodd" fill="#F39E39" d="M326.701,704.093L326.701,704.093&#10;&#9;&#9;&#9;c4.92,0.135,8.836,4.271,8.702,9.19l-0.296,10.85c-0.134,4.92-4.27,8.835-9.19,8.701h0c-4.801-0.132-8.645-4.073-8.703-8.835&#10;&#9;&#9;&#9;c3.054-0.047,5.516-2.537,5.516-5.602c0-2.966-2.303-5.392-5.218-5.59v-0.014C317.646,707.875,321.781,703.959,326.701,704.093z" transform="matrix(1, 0, 0, 1, 0, 0)"/><path fill-rule="evenodd" clip-rule="evenodd" fill="#F7C46C" d="M191.2,254.854c2.713,0.965,5.281,2.223,7.668,3.733l7.663-6.795&#10;&#9;&#9;&#9;c1.945-1.725,4.948-1.544,6.673,0.401l8.036,9.063c1.725,1.946,1.544,4.948-0.401,6.673l-7.664,6.795&#10;&#9;&#9;&#9;c1.213,2.551,2.154,5.25,2.789,8.06l10.22,0.614c2.595,0.156,4.591,2.407,4.435,5.002l-0.727,12.091&#10;&#9;&#9;&#9;c-0.156,2.595-2.406,4.591-5.001,4.435l-10.221-0.614c-0.965,2.713-2.223,5.281-3.732,7.668l6.794,7.664&#10;&#9;&#9;&#9;c1.725,1.945,1.544,4.948-0.401,6.673l-9.063,8.036c-1.945,1.725-4.947,1.544-6.672-0.401l-6.795-7.664&#10;&#9;&#9;&#9;c-2.55,1.213-5.25,2.154-8.059,2.789l-0.615,10.22c-0.156,2.595-2.406,4.59-5.001,4.435l-12.091-0.727&#10;&#9;&#9;&#9;c-2.596-0.156-4.591-2.406-4.435-5.001l0.614-10.221c-2.713-0.965-5.281-2.223-7.668-3.732l-7.664,6.794&#10;&#9;&#9;&#9;c-1.945,1.725-4.948,1.544-6.672-0.401l-8.036-9.063c-1.725-1.945-1.544-4.948,0.401-6.672l7.664-6.795&#10;&#9;&#9;&#9;c-1.213-2.551-2.154-5.25-2.789-8.06l-10.22-0.614c-2.595-0.156-4.59-2.407-4.435-5.001l0.727-12.091&#10;&#9;&#9;&#9;c0.156-2.595,2.407-4.591,5.002-4.435l10.221,0.614c0.965-2.713,2.223-5.28,3.733-7.667l-6.795-7.664&#10;&#9;&#9;&#9;c-1.725-1.945-1.544-4.948,0.401-6.672l9.063-8.036c1.945-1.725,4.948-1.544,6.672,0.401l6.795,7.664&#10;&#9;&#9;&#9;c2.55-1.213,5.25-2.155,8.06-2.789l0.614-10.221c0.156-2.595,2.407-4.59,5.002-4.435l12.091,0.727&#10;&#9;&#9;&#9;c2.595,0.156,4.59,2.406,4.435,5.001L191.2,254.854z" transform="matrix(1, 0, 0, 1, 0, 0)"/><path d="M 201.354 291.317993 A 23.146999 23.146999 0 0 1 178.207001 314.464993 A 23.146999 23.146999 0 0 1 155.060001 291.317993 A 23.146999 23.146999 0 0 1 178.207001 268.170994 A 23.146999 23.146999 0 0 1 201.354 291.317993 Z" fill-rule="evenodd" clip-rule="evenodd" fill="#F39E39" transform="matrix(1, 0, 0, 1, 0, 0)"/><path fill-rule="evenodd" clip-rule="evenodd" fill="#DA5D6A" d="M292.923,277.155c3.144,1.119,6.12,2.576,8.887,4.326&#10;&#9;&#9;&#9;l8.882-7.875c2.254-1.999,5.734-1.79,7.733,0.465l9.313,10.504c1.999,2.254,1.79,5.734-0.464,7.733l-8.882,7.875&#10;&#9;&#9;&#9;c1.406,2.956,2.497,6.085,3.232,9.341l11.845,0.711c3.008,0.181,5.32,2.789,5.14,5.797l-0.842,14.013&#10;&#9;&#9;&#9;c-0.18,3.008-2.789,5.321-5.796,5.14l-11.845-0.712c-1.119,3.145-2.576,6.121-4.326,8.887l7.875,8.882&#10;&#9;&#9;&#9;c1.999,2.254,1.79,5.734-0.465,7.733l-10.504,9.313c-2.254,1.999-5.734,1.79-7.733-0.464l-7.875-8.882&#10;&#9;&#9;&#9;c-2.956,1.406-6.085,2.497-9.341,3.232l-0.711,11.845c-0.181,3.007-2.789,5.32-5.797,5.14l-14.013-0.842&#10;&#9;&#9;&#9;c-3.008-0.181-5.32-2.789-5.14-5.797l0.711-11.845c-3.144-1.119-6.12-2.576-8.887-4.326l-8.882,7.875&#10;&#9;&#9;&#9;c-2.254,1.999-5.734,1.79-7.733-0.464l-9.313-10.504c-1.999-2.254-1.79-5.734,0.464-7.733l8.882-7.875&#10;&#9;&#9;&#9;c-1.406-2.956-2.497-6.085-3.232-9.34l-11.845-0.712c-3.008-0.181-5.32-2.789-5.14-5.796l0.842-14.013&#10;&#9;&#9;&#9;c0.181-3.008,2.789-5.321,5.797-5.14l11.846,0.711c1.119-3.144,2.576-6.12,4.326-8.886l-7.875-8.882&#10;&#9;&#9;&#9;c-1.999-2.255-1.79-5.734,0.465-7.733l10.504-9.313c2.254-1.999,5.734-1.79,7.733,0.465l7.875,8.882&#10;&#9;&#9;&#9;c2.956-1.406,6.085-2.497,9.341-3.231l0.711-11.846c0.181-3.007,2.789-5.32,5.797-5.139l14.013,0.842&#10;&#9;&#9;&#9;c3.008,0.181,5.32,2.789,5.14,5.797L292.923,277.155z" transform="matrix(1, 0, 0, 1, 0, 0)"/><path d="M 301.832014 319.415009 A 23.968 23.968 0 0 1 277.864014 343.383009 A 23.968 23.968 0 0 1 253.896013 319.415009 A 23.968 23.968 0 0 1 277.864014 295.447008 A 23.968 23.968 0 0 1 301.832014 319.415009 Z" fill-rule="evenodd" clip-rule="evenodd" fill="#C84A56" transform="matrix(1, 0, 0, 1, 0, 0)"/><path d="M 294.299013 319.415009 A 16.434999 16.434999 0 0 1 277.864014 335.850008 A 16.434999 16.434999 0 0 1 261.429014 319.415009 A 16.434999 16.434999 0 0 1 277.864014 302.980009 A 16.434999 16.434999 0 0 1 294.299013 319.415009 Z" fill-rule="evenodd" clip-rule="evenodd" fill="#5C6673" transform="matrix(1, 0, 0, 1, 0, 0)"/><path d="M 184.926001 291.316986 A 6.719 6.719 0 0 1 178.207001 298.035986 A 6.719 6.719 0 0 1 171.488001 291.316986 A 6.719 6.719 0 0 1 178.207001 284.597986 A 6.719 6.719 0 0 1 184.926001 291.316986 Z" fill-rule="evenodd" clip-rule="evenodd" fill="#5C6673" transform="matrix(1, 0, 0, 1, 0, 0)"/><path fill-rule="evenodd" clip-rule="evenodd" fill="#F7986D" d="M211.479,714.279L211.479,714.279&#10;&#9;&#9;&#9;c-5.416,0-9.846,4.431-9.846,9.846v8.377c0,5.415,4.431,9.846,9.846,9.846l0,0c5.415,0,9.846-4.431,9.846-9.846v-8.377&#10;&#9;&#9;&#9;C221.324,718.71,216.894,714.279,211.479,714.279z" transform="matrix(1, 0, 0, 1, 0, 0)"/><path fill-rule="evenodd" clip-rule="evenodd" fill="#F1647D" d="M249.432,818.57h52.312c1.444,0,2.625,1.182,2.625,2.625v10.127&#10;&#9;&#9;&#9;c0,1.443-1.181,2.625-2.625,2.625h-52.312c-1.444,0-2.625-1.182-2.625-2.625v-10.127&#10;&#9;&#9;&#9;C246.807,819.752,247.988,818.57,249.432,818.57z" transform="matrix(1, 0, 0, 1, 0, 0)"/><path fill-rule="evenodd" clip-rule="evenodd" fill="#E3B58F" d="M225.861,360.756c6.255,1.064,12.035,3.524,17.007,7.048&#10;&#9;&#9;&#9;l6.19-6.19c0.875-0.875,2.307-0.875,3.182,0l6.762,6.762c0.875,0.875,0.875,2.307,0,3.182l-6.19,6.19&#10;&#9;&#9;&#9;c3.524,4.972,5.984,10.751,7.048,17.007h8.75c1.238,0,2.25,1.012,2.25,2.25v9.563c0,1.237-1.012,2.25-2.25,2.25h-8.751&#10;&#9;&#9;&#9;c-1.064,6.256-3.524,12.035-7.048,17.007l6.19,6.19c0.875,0.875,0.875,2.307,0,3.182l-6.762,6.762&#10;&#9;&#9;&#9;c-0.875,0.875-2.307,0.875-3.182,0l-6.19-6.19c-4.972,3.524-10.752,5.984-17.007,7.048v8.75c0,1.238-1.012,2.25-2.25,2.25h-9.563&#10;&#9;&#9;&#9;c-1.238,0-2.25-1.012-2.25-2.25v-8.751c-6.255-1.064-12.035-3.524-17.007-7.048l-6.19,6.19c-0.875,0.875-2.307,0.875-3.182,0&#10;&#9;&#9;&#9;l-6.762-6.762c-0.875-0.875-0.875-2.307,0-3.182l6.19-6.19c-3.524-4.972-5.984-10.752-7.048-17.007h-8.75&#10;&#9;&#9;&#9;c-1.238,0-2.25-1.012-2.25-2.25v-9.563c0-1.238,1.012-2.25,2.25-2.25h8.75c1.064-6.255,3.524-12.035,7.048-17.007l-6.19-6.19&#10;&#9;&#9;&#9;c-0.875-0.875-0.875-2.307,0-3.182l6.762-6.762c0.875-0.875,2.307-0.875,3.182,0l6.19,6.19c4.972-3.523,10.751-5.984,17.007-7.048&#10;&#9;&#9;&#9;v-8.751c0-1.237,1.012-2.25,2.25-2.25h9.563c1.238,0,2.25,1.012,2.25,2.25V360.756z" transform="matrix(1, 0, 0, 1, 0, 0)"/><path fill-rule="evenodd" clip-rule="evenodd" fill="#DAAA85" d="M218.83,437.975c19.932,0,36.188-16.256,36.188-36.188&#10;&#9;&#9;&#9;s-16.256-36.188-36.188-36.188s-36.188,16.256-36.188,36.188S198.898,437.975,218.83,437.975z" transform="matrix(1, 0, 0, 1, 0, 0)"/><path fill-rule="evenodd" clip-rule="evenodd" fill="#5C6673" d="M218.83,420.162c10.121,0,18.375-8.254,18.375-18.375&#10;&#9;&#9;&#9;s-8.254-18.375-18.375-18.375s-18.375,8.254-18.375,18.375S208.709,420.162,218.83,420.162z" transform="matrix(1, 0, 0, 1, 0, 0)"/><path fill-rule="evenodd" clip-rule="evenodd" fill="#51B8E2" d="M250.837,460.067c3.209,1.142,6.246,2.629,9.069,4.415&#10;&#9;&#9;&#9;l9.063-8.036c2.3-2.04,5.852-1.826,7.891,0.474l9.504,10.719c2.04,2.3,1.827,5.852-0.474,7.891l-9.064,8.037&#10;&#9;&#9;&#9;c1.435,3.017,2.548,6.209,3.298,9.531l12.087,0.727c3.069,0.185,5.429,2.846,5.245,5.915l-0.859,14.3&#10;&#9;&#9;&#9;c-0.185,3.069-2.846,5.43-5.915,5.245l-12.088-0.727c-1.141,3.209-2.629,6.246-4.415,9.069l8.036,9.062&#10;&#9;&#9;&#9;c2.04,2.301,1.826,5.852-0.475,7.892l-10.719,9.504c-2.301,2.04-5.851,1.827-7.892-0.474l-8.036-9.064&#10;&#9;&#9;&#9;c-3.017,1.436-6.209,2.549-9.532,3.299l-0.726,12.087c-0.185,3.069-2.846,5.429-5.916,5.245l-14.299-0.859&#10;&#9;&#9;&#9;c-3.069-0.185-5.429-2.847-5.245-5.916l0.726-12.087c-3.208-1.142-6.246-2.629-9.068-4.415l-9.063,8.036&#10;&#9;&#9;&#9;c-2.301,2.04-5.852,1.827-7.892-0.475l-9.503-10.719c-2.04-2.301-1.827-5.851,0.474-7.891l9.064-8.037&#10;&#9;&#9;&#9;c-1.435-3.017-2.548-6.21-3.298-9.531l-12.087-0.727c-3.069-0.185-5.429-2.846-5.245-5.915l0.859-14.3&#10;&#9;&#9;&#9;c0.185-3.069,2.847-5.429,5.916-5.245l12.088,0.727c1.142-3.208,2.629-6.245,4.415-9.068l-8.037-9.064&#10;&#9;&#9;&#9;c-2.04-2.3-1.827-5.852,0.474-7.891l10.719-9.504c2.301-2.04,5.852-1.827,7.892,0.474l8.036,9.064&#10;&#9;&#9;&#9;c3.017-1.435,6.209-2.548,9.532-3.298l0.727-12.087c0.184-3.069,2.846-5.429,5.915-5.245l14.3,0.859&#10;&#9;&#9;&#9;c3.069,0.185,5.429,2.846,5.245,5.916L250.837,460.067z" transform="matrix(1, 0, 0, 1, 0, 0)"/><path d="M 259.563002 503.191986 A 24.093 24.093 0 0 1 235.470001 527.284986 A 24.093 24.093 0 0 1 211.377001 503.191986 A 24.093 24.093 0 0 1 235.470001 479.098986 A 24.093 24.093 0 0 1 259.563002 503.191986 Z" fill-rule="evenodd" clip-rule="evenodd" fill="#5F94CE" transform="matrix(1, 0, 0, 1, 0, 0)"/><path d="M 250.230993 503.191986 A 14.76 14.76 0 0 1 235.470993 517.951986 A 14.76 14.76 0 0 1 220.710993 503.191986 A 14.76 14.76 0 0 1 235.470993 488.431986 A 14.76 14.76 0 0 1 250.230993 503.191986 Z" fill-rule="evenodd" clip-rule="evenodd" fill="#5C6673" transform="matrix(1, 0, 0, 1, 0, 0)"/><path fill-rule="evenodd" clip-rule="evenodd" fill="#F7C46C" d="M142.279,479.997c6.159,1.048,11.849,3.47,16.744,6.939&#10;&#9;&#9;&#9;l6.095-6.095c0.861-0.861,2.271-0.861,3.132,0l6.658,6.658c0.862,0.861,0.862,2.271,0,3.133l-6.095,6.095&#10;&#9;&#9;&#9;c3.469,4.896,5.892,10.585,6.939,16.744h8.616c1.218,0,2.215,0.996,2.215,2.215v9.415c0,1.219-0.997,2.215-2.215,2.215h-8.616&#10;&#9;&#9;&#9;c-1.048,6.159-3.47,11.849-6.939,16.744l6.095,6.095c0.862,0.862,0.862,2.271,0,3.133l-6.658,6.658&#10;&#9;&#9;&#9;c-0.861,0.861-2.271,0.861-3.132,0l-6.095-6.095c-4.896,3.469-10.585,5.891-16.744,6.939v8.615c0,1.218-0.997,2.215-2.215,2.215&#10;&#9;&#9;&#9;h-9.415c-1.219,0-2.215-0.997-2.215-2.215v-8.616c-6.159-1.048-11.848-3.47-16.744-6.938l-6.095,6.095&#10;&#9;&#9;&#9;c-0.862,0.861-2.271,0.861-3.133,0l-6.658-6.658c-0.861-0.861-0.861-2.271,0-3.133l6.095-6.095&#10;&#9;&#9;&#9;c-3.469-4.896-5.892-10.585-6.939-16.744h-8.615c-1.218,0-2.215-0.996-2.215-2.215v-9.415c0-1.219,0.997-2.215,2.215-2.215h8.615&#10;&#9;&#9;&#9;c1.048-6.159,3.47-11.849,6.939-16.744l-6.095-6.095c-0.861-0.862-0.861-2.271,0-3.133l6.658-6.658&#10;&#9;&#9;&#9;c0.861-0.861,2.271-0.861,3.133,0l6.095,6.095c4.896-3.469,10.585-5.891,16.744-6.939v-8.616c0-1.218,0.997-2.215,2.215-2.215&#10;&#9;&#9;&#9;h9.415c1.219,0,2.215,0.997,2.215,2.215V479.997z" transform="matrix(1, 0, 0, 1, 0, 0)"/><path fill-rule="evenodd" clip-rule="evenodd" fill="#F39E39" d="M135.357,532.688c6.771,0,12.294-5.523,12.294-12.295&#10;&#9;&#9;&#9;s-5.523-12.294-12.294-12.294c-6.772,0-12.294,5.522-12.294,12.294S128.585,532.688,135.357,532.688z" transform="matrix(1, 0, 0, 1, 0, 0)"/><path fill-rule="evenodd" clip-rule="evenodd" fill="#5C6673" d="M135.357,525.187c2.641,0,4.794-2.153,4.794-4.794&#10;&#9;&#9;&#9;s-2.153-4.794-4.794-4.794s-4.794,2.153-4.794,4.794S132.716,525.187,135.357,525.187z" transform="matrix(1, 0, 0, 1, 0, 0)"/><path fill-rule="evenodd" clip-rule="evenodd" fill="#DA5D6A" d="M295.236,551.691c6.159,1.048,11.849,3.47,16.744,6.938&#10;&#9;&#9;&#9;l6.095-6.095c0.861-0.861,2.271-0.861,3.132,0l6.658,6.658c0.862,0.861,0.862,2.271,0,3.133l-6.095,6.095&#10;&#9;&#9;&#9;c3.47,4.896,5.892,10.585,6.939,16.743h8.616c1.218,0,2.215,0.997,2.215,2.216v9.415c0,1.219-0.997,2.215-2.215,2.215h-8.616&#10;&#9;&#9;&#9;c-1.048,6.159-3.47,11.849-6.939,16.744l6.095,6.095c0.862,0.861,0.862,2.271,0,3.133l-6.658,6.657&#10;&#9;&#9;&#9;c-0.861,0.862-2.271,0.862-3.132,0l-6.095-6.095c-4.896,3.47-10.585,5.892-16.744,6.939v8.616c0,1.218-0.997,2.215-2.215,2.215&#10;&#9;&#9;&#9;h-9.415c-1.219,0-2.215-0.997-2.215-2.215v-8.616c-6.159-1.048-11.849-3.47-16.744-6.939l-6.095,6.095&#10;&#9;&#9;&#9;c-0.861,0.862-2.271,0.862-3.133,0l-6.658-6.657c-0.861-0.861-0.861-2.271,0-3.133l6.095-6.095&#10;&#9;&#9;&#9;c-3.469-4.896-5.892-10.585-6.939-16.744h-8.615c-1.218,0-2.215-0.996-2.215-2.215v-9.415c0-1.219,0.997-2.216,2.215-2.216h8.615&#10;&#9;&#9;&#9;c1.048-6.158,3.47-11.848,6.939-16.743l-6.095-6.095c-0.861-0.862-0.861-2.271,0-3.133l6.658-6.658&#10;&#9;&#9;&#9;c0.862-0.861,2.271-0.861,3.133,0l6.095,6.095c4.896-3.469,10.585-5.891,16.744-6.938v-8.616c0-1.218,0.997-2.215,2.215-2.215&#10;&#9;&#9;&#9;h9.415c1.219,0,2.215,0.997,2.215,2.215V551.691z" transform="matrix(1, 0, 0, 1, 0, 0)"/><path fill-rule="evenodd" clip-rule="evenodd" fill="#C84A56" d="M288.313,627.889c19.719,0,35.802-16.083,35.802-35.802&#10;&#9;&#9;&#9;s-16.083-35.802-35.802-35.802s-35.802,16.083-35.802,35.802S268.595,627.889,288.313,627.889z" transform="matrix(1, 0, 0, 1, 0, 0)"/><path fill-rule="evenodd" clip-rule="evenodd" fill="#5C6673" d="M288.313,608.766c9.186,0,16.679-7.492,16.679-16.679&#10;&#9;&#9;&#9;s-7.493-16.679-16.679-16.679s-16.679,7.492-16.679,16.679S279.127,608.766,288.313,608.766z" transform="matrix(1, 0, 0, 1, 0, 0)"/>
</svg>